<?xml version="1.0" encoding="UTF-8" standalone="no"?>
<svg xmlns="http://www.w3.org/2000/svg" xmlns:xlink="http://www.w3.org/1999/xlink" xmlns:serif="http://www.serif.com/" width="100%" height="100%" viewBox="0 0 1055 346" version="1.1" xml:space="preserve" style="fill-rule:evenodd;clip-rule:evenodd;stroke-linejoin:round;stroke-miterlimit:2;">
  <g>
    <path d="M87.008,344.108c-12.579,0 -24.3,-2.162 -34.845,-6.462c-10.542,-4.275 -19.846,-10.417 -27.667,-18.259c-7.821,-7.812 -13.921,-17.12 -18.142,-27.683c-4.212,-10.533 -6.354,-22.091 -6.354,-34.383c0,-12.433 2.213,-24.017 6.592,-34.408c4.371,-10.388 10.558,-19.546 18.379,-27.213c7.821,-7.667 17.137,-13.663 27.687,-17.787c10.534,-4.13 22.088,-6.234 34.35,-6.234c12.421,0 24.017,2.104 34.471,6.234c10.463,4.124 19.763,10.12 27.671,17.787c7.892,7.667 14.083,16.825 18.396,27.242c4.292,10.362 6.475,21.946 6.475,34.379c-0,12.292 -2.183,23.879 -6.475,34.412c-4.3,10.534 -10.392,19.842 -18.125,27.654c-7.746,7.842 -17.021,13.984 -27.575,18.259c-10.538,4.3 -22.254,6.462 -34.838,6.462Zm0,-165.641c-11.416,-0 -22.141,1.929 -31.879,5.762c-9.692,3.804 -18.25,9.309 -25.425,16.3c-7.175,7.054 -12.854,15.45 -16.866,25.017c-4.034,9.537 -6.067,20.25 -6.067,31.775c-0,11.416 1.975,22.154 5.858,31.866c3.892,9.688 9.496,18.263 16.658,25.396c7.176,7.2 15.73,12.846 25.442,16.8c9.721,3.95 20.584,5.967 32.279,5.967c11.7,-0 22.563,-2.017 32.284,-5.967c9.691,-3.954 18.22,-9.6 25.312,-16.771c7.108,-7.162 12.709,-15.737 16.671,-25.454c3.954,-9.712 5.958,-20.421 5.958,-31.837c0,-11.554 -1.987,-22.238 -5.946,-31.804c-3.958,-9.538 -9.62,-17.934 -16.854,-24.959c-7.266,-7.02 -15.82,-12.525 -25.458,-16.358c-9.638,-3.804 -20.412,-5.733 -31.967,-5.733Z" style="fill:#8cc63f;fill-rule:nonzero;"></path>
    <path d="M257.787,175.483c-12.587,0 -24.3,-2.166 -34.849,-6.466c-10.546,-4.28 -19.855,-10.425 -27.659,-18.25c-7.833,-7.813 -13.929,-17.117 -18.154,-27.696c-4.204,-10.517 -6.35,-22.092 -6.35,-34.367c0,-12.45 2.217,-24.037 6.592,-34.408c4.375,-10.404 10.562,-19.563 18.383,-27.225c7.833,-7.654 17.137,-13.65 27.679,-17.792c10.534,-4.125 22.084,-6.221 34.358,-6.221c12.413,0 24.009,2.096 34.467,6.234c10.454,4.129 19.759,10.112 27.658,17.779c7.909,7.662 14.096,16.821 18.413,27.237c4.279,10.375 6.467,21.963 6.467,34.396c-0,12.275 -2.171,23.863 -6.467,34.396c-4.3,10.55 -10.4,19.854 -18.125,27.65c-7.746,7.829 -17.025,13.987 -27.571,18.267c-10.55,4.3 -22.258,6.466 -34.842,6.466Zm0,-165.662c-11.42,-0 -22.141,1.946 -31.87,5.779c-9.709,3.787 -18.259,9.287 -25.438,16.312c-7.158,7.038 -12.837,15.45 -16.866,25c-4.03,9.542 -6.071,20.25 -6.071,31.792c-0,11.429 1.979,22.138 5.858,31.863c3.9,9.687 9.5,18.245 16.662,25.416c7.18,7.167 15.73,12.813 25.438,16.75c9.721,3.98 20.583,5.992 32.287,5.992c11.696,-0 22.559,-2.012 32.28,-5.992c9.691,-3.937 18.216,-9.583 25.304,-16.737c7.117,-7.184 12.721,-15.742 16.691,-25.454c3.955,-9.717 5.963,-20.425 5.963,-31.838c-0,-11.558 -2.008,-22.25 -5.963,-31.804c-3.954,-9.538 -9.616,-17.95 -16.854,-24.975c-7.271,-7.038 -15.821,-12.538 -25.441,-16.342c-9.663,-3.816 -20.417,-5.762 -31.98,-5.762Z" style="fill:#388f44;fill-rule:nonzero;"></path>
    <path d="M387.833,113.738c2.642,-6.659 6.371,-12.48 11.146,-17.409c4.779,-4.946 10.413,-8.796 16.888,-11.529c6.458,-2.75 13.512,-4.125 21.154,-4.125c7.637,-0 14.683,1.375 21.154,4.125c6.471,2.733 12.087,6.583 16.871,11.529c4.792,4.929 8.508,10.75 11.154,17.409c2.658,6.67 3.975,13.929 3.975,21.754c-0,7.858 -1.317,15.1 -3.975,21.787c-2.646,6.667 -6.362,12.471 -11.154,17.413c-4.784,4.916 -10.4,8.779 -16.871,11.5c-6.471,2.779 -13.517,4.154 -21.154,4.154c-7.642,-0 -14.696,-1.375 -21.154,-4.154c-6.475,-2.721 -12.109,-6.584 -16.888,-11.5c-4.775,-4.942 -8.504,-10.746 -11.146,-17.413c-2.65,-6.687 -3.966,-13.929 -3.966,-21.787c-0,-7.825 1.316,-15.084 3.966,-21.754Zm10.621,45.587c3.804,7.037 9.05,12.558 15.738,16.567c6.662,4.037 14.271,6.058 22.829,6.058c8.554,-0 16.166,-2.021 22.829,-6.058c6.667,-4.009 11.896,-9.53 15.658,-16.567c3.771,-7.025 5.646,-14.967 5.646,-23.833c0,-8.938 -1.875,-16.913 -5.646,-23.892c-3.762,-6.979 -8.991,-12.479 -15.658,-16.5c-6.663,-4.025 -14.275,-6.029 -22.829,-6.029c-8.558,-0 -16.167,2.004 -22.829,6.029c-6.688,4.021 -11.934,9.521 -15.738,16.5c-3.817,6.979 -5.733,14.954 -5.733,23.892c-0,8.866 1.916,16.808 5.733,23.833Z" style="fill:#231f20;fill-rule:nonzero;"></path>
    <path d="M515.433,170.333c2.5,3.659 5.575,6.584 9.246,8.779c3.671,2.192 8.046,3.275 13.138,3.275c6.912,0 12.346,-1.899 16.266,-5.704c3.909,-3.833 5.871,-8.691 5.871,-14.608c0,-5.196 -1.175,-9.362 -3.5,-12.521c-2.358,-3.15 -5.366,-5.721 -9.087,-7.7c-3.713,-1.987 -7.621,-3.746 -11.692,-5.279c-3.054,-1.129 -6.237,-2.471 -9.542,-4.054c-3.312,-1.579 -6.4,-3.513 -9.245,-5.804c-2.859,-2.284 -5.167,-5.067 -6.95,-8.325c-1.784,-3.25 -2.671,-7.171 -2.671,-11.767c-0,-5.088 1.216,-9.579 3.658,-13.5c2.442,-3.938 5.858,-6.979 10.233,-9.158c4.392,-2.209 9.317,-3.292 14.817,-3.292c5.717,-0 10.621,1.067 14.746,3.2c4.108,2.138 7.562,4.842 10.312,8.092c2.755,3.262 4.83,6.612 6.259,10.095l-7.338,4.126c-1.116,-2.763 -2.725,-5.459 -4.804,-8.092c-2.075,-2.663 -4.713,-4.871 -7.867,-6.654c-3.162,-1.784 -7.087,-2.679 -11.758,-2.679c-6.217,-0 -10.992,1.595 -14.367,4.812c-3.358,3.221 -5.029,7.2 -5.029,11.996c0,3.967 0.971,7.375 2.9,10.229c1.933,2.854 4.821,5.429 8.708,7.713c3.863,2.295 8.642,4.474 14.355,6.495c2.962,1.125 6.008,2.5 9.17,4.109c3.13,1.641 6.025,3.671 8.63,6.116c2.575,2.459 4.696,5.384 6.321,8.792c1.637,3.408 2.454,7.462 2.454,12.142c-0,4.391 -0.788,8.35 -2.367,11.921c-1.579,3.537 -3.775,6.637 -6.567,9.241c-2.796,2.575 -6.071,4.567 -9.845,5.942c-3.784,1.375 -7.842,2.046 -12.217,2.046c-6.217,-0 -11.675,-1.259 -16.35,-3.804c-4.688,-2.542 -8.608,-5.938 -11.754,-10.242c-3.163,-4.271 -5.605,-8.888 -7.346,-13.875l6.875,-4.288c1.741,4.479 3.833,8.546 6.337,12.225Z" style="fill:#231f20;fill-rule:nonzero;"></path>
    <rect x="589.325" y="82.033" width="8.4" height="106.938" style="fill:#231f20;fill-rule:nonzero;"></rect>
    <path d="M632.779,188.971l-8.396,-0l0,-106.938l8.396,0l0,106.938Zm-3.95,-106.938l52.992,0l-0,7.946l-52.992,0l0,-7.946Zm0,44.3l49.946,0l0,7.946l-49.946,0l0,-7.946Zm0,54.68l52.992,-0l-0,7.958l-52.992,-0l0,-7.958Z" style="fill:#231f20;fill-rule:nonzero;"></path>
    <path d="M712.937,188.971l-8.412,-0l-0,-106.938l8.412,0l0,106.938Zm-3.82,-0l-0,-8.425l24.45,-0c6.612,-0 12.654,-1.054 18.096,-3.192c5.441,-2.133 10.095,-5.175 13.987,-9.067c3.862,-3.945 6.846,-8.67 8.921,-14.212c2.079,-5.562 3.133,-11.75 3.133,-18.571c0,-6.829 -1.054,-13.004 -3.133,-18.562c-2.075,-5.563 -5.059,-10.284 -8.921,-14.192c-3.892,-3.937 -8.546,-6.979 -13.987,-9.1c-5.442,-2.137 -11.484,-3.204 -18.096,-3.204l-24.45,-0l-0,-8.413l24.45,0c10.387,0 19.529,2.255 27.404,6.73c7.896,4.479 14.071,10.712 18.487,18.712c4.438,8.004 6.646,17.338 6.646,28.029c0,10.683 -2.208,20.033 -6.646,28.034c-4.416,7.995 -10.591,14.229 -18.487,18.704c-7.875,4.479 -17.017,6.729 -27.404,6.729l-24.45,-0Z" style="fill:#231f20;fill-rule:nonzero;"></path>
    <path d="M815.513,82.05l-0,98.963l44.15,-0l-0,7.958l-52.567,-0l-0,-106.921l8.417,0Z" style="fill:#231f20;fill-rule:nonzero;"></path>
    <path d="M883.275,188.971l-8.396,-0l0,-106.938l8.396,0l-0,106.938Zm-3.979,-106.938l53.021,0l-0,7.946l-53.021,0l-0,-7.946Zm-0,44.3l49.95,0l-0,7.946l-49.95,0l-0,-7.946Zm-0,54.68l53.021,-0l-0,7.958l-53.021,-0l-0,-7.958Z" style="fill:#231f20;fill-rule:nonzero;"></path>
    <path d="M398.683,312.217c3.863,6.933 9.063,12.379 15.579,16.354c6.521,3.979 13.796,5.941 21.846,5.941c5.092,0 9.721,-0.554 13.896,-1.67c4.171,-1.109 7.963,-2.78 11.375,-5.034c3.417,-2.221 6.438,-4.883 9.096,-7.925l0,11.292c-4.488,3.95 -9.363,6.937 -14.667,8.925c-5.287,1.992 -11.866,2.983 -19.7,2.983c-7.433,0 -14.337,-1.345 -20.696,-4.062c-6.379,-2.696 -11.895,-6.471 -16.583,-11.354c-4.691,-4.888 -8.341,-10.709 -10.996,-17.438c-2.65,-6.704 -3.971,-14.021 -3.971,-21.979c0,-7.958 1.321,-15.271 3.971,-22c2.655,-6.729 6.305,-12.525 10.996,-17.412c4.688,-4.888 10.204,-8.659 16.583,-11.38c6.359,-2.695 13.263,-4.041 20.696,-4.041c7.834,-0 14.413,0.996 19.7,2.987c5.304,1.959 10.179,4.942 14.667,8.921l0,11.15c-2.658,-3.042 -5.708,-5.675 -9.175,-7.867c-3.458,-2.2 -7.279,-3.837 -11.454,-4.979c-4.171,-1.108 -8.75,-1.667 -13.738,-1.667c-8.05,0 -15.325,1.959 -21.846,5.884c-6.516,3.917 -11.716,9.333 -15.579,16.266c-3.883,6.934 -5.816,14.984 -5.816,24.138c-0,9.042 1.933,17.062 5.816,23.967Z" style="fill:#231f20;fill-rule:nonzero;"></path>
    <path d="M489.929,266.483c2.65,-6.671 6.367,-12.495 11.142,-17.408c4.8,-4.95 10.417,-8.808 16.887,-11.533c6.455,-2.75 13.517,-4.125 21.15,-4.125c7.646,-0 14.684,1.375 21.167,4.125c6.45,2.725 12.083,6.583 16.883,11.533c4.767,4.913 8.484,10.737 11.146,17.408c2.633,6.671 3.95,13.925 3.95,21.767c0,7.846 -1.317,15.071 -3.95,21.771c-2.662,6.671 -6.379,12.466 -11.146,17.408c-4.8,4.917 -10.433,8.779 -16.883,11.529c-6.483,2.75 -13.521,4.125 -21.167,4.125c-7.633,0 -14.695,-1.375 -21.15,-4.125c-6.47,-2.75 -12.087,-6.612 -16.887,-11.529c-4.775,-4.942 -8.492,-10.737 -11.142,-17.408c-2.654,-6.7 -3.971,-13.925 -3.971,-21.771c0,-7.842 1.317,-15.096 3.971,-21.767Zm10.625,45.588c3.817,7.021 9.063,12.554 15.725,16.587c6.667,4.009 14.279,6.03 22.829,6.03c8.55,-0 16.163,-2.021 22.834,-6.03c6.67,-4.033 11.895,-9.566 15.654,-16.587c3.771,-7.025 5.675,-14.984 5.675,-23.821c-0,-8.95 -1.904,-16.938 -5.675,-23.904c-3.759,-6.992 -8.984,-12.463 -15.654,-16.5c-6.671,-4.013 -14.284,-6.029 -22.834,-6.029c-8.55,-0 -16.162,2.016 -22.829,6.029c-6.662,4.037 -11.908,9.508 -15.725,16.5c-3.829,6.966 -5.746,14.954 -5.746,23.904c0,8.837 1.917,16.796 5.746,23.821Z" style="fill:#231f20;fill-rule:nonzero;"></path>
    <path d="M613.267,341.708l8.391,0l0,-89.212l81.259,93.337l-0,-111.041l-8.396,-0l-0,89.508l-81.254,-93.633l-0,111.041Z" style="fill:#231f20;fill-rule:nonzero;"></path>
    <path d="M718.146,234.792l-0,7.929l28.104,-0l0,98.987l8.396,0l-0,-98.987l28.121,-0l-0,-7.929l-64.621,-0Z" style="fill:#231f20;fill-rule:nonzero;"></path>
    <rect x="797.604" y="234.792" width="8.392" height="106.917" style="fill:#231f20;fill-rule:nonzero;"></rect>
    <path d="M882.896,288.396l47.504,-0c0,7.229 -1.129,14.137 -3.383,20.717c-2.221,6.554 -5.53,12.379 -9.905,17.466c-4.37,5.096 -9.666,9.104 -15.899,12.059c-6.205,2.954 -13.225,4.445 -21.071,4.445c-7.634,0 -14.688,-1.345 -21.155,-4.033c-6.466,-2.725 -12.112,-6.5 -16.937,-11.417c-4.842,-4.887 -8.592,-10.675 -11.237,-17.404c-2.634,-6.704 -3.984,-14.05 -3.984,-21.979c0,-7.958 1.35,-15.271 3.984,-22c2.645,-6.729 6.395,-12.525 11.237,-17.412c4.825,-4.888 10.471,-8.692 16.937,-11.38c6.467,-2.695 13.521,-4.041 21.155,-4.041c6.616,-0 12.654,0.908 18.116,2.75c5.442,1.816 10.3,4.45 14.571,7.845c4.283,3.421 7.958,7.521 11,12.317l-6.1,5.354c-3.571,-5.912 -8.558,-10.708 -14.983,-14.366c-6.421,-3.659 -13.942,-5.5 -22.604,-5.5c-8.354,-0 -15.884,1.987 -22.588,5.937c-6.729,3.979 -12.054,9.425 -15.975,16.358c-3.921,6.934 -5.883,14.951 -5.883,24.138c-0,9.075 1.962,17.092 5.883,24.054c3.921,6.963 9.217,12.467 15.888,16.413c6.675,3.979 14.221,5.971 22.675,5.971c6,-0 11.416,-1.021 16.183,-3.046c4.8,-2.075 8.942,-4.855 12.462,-8.421c3.513,-3.575 6.325,-7.638 8.476,-12.204c2.149,-4.596 3.466,-9.479 3.962,-14.688l-38.329,0l-0,-7.933Z" style="fill:#231f20;fill-rule:nonzero;"></path>
    <path d="M949.171,266.483c2.65,-6.671 6.362,-12.495 11.15,-17.408c4.796,-4.95 10.417,-8.808 16.879,-11.533c6.45,-2.75 13.517,-4.125 21.154,-4.125c7.638,-0 14.675,1.375 21.158,4.125c6.463,2.725 12.084,6.583 16.88,11.533c4.77,4.913 8.487,10.737 11.15,17.408c2.633,6.671 3.962,13.925 3.962,21.767c0,7.846 -1.329,15.071 -3.962,21.771c-2.663,6.671 -6.38,12.466 -11.15,17.408c-4.796,4.917 -10.417,8.779 -16.88,11.529c-6.483,2.75 -13.52,4.125 -21.158,4.125c-7.637,0 -14.704,-1.375 -21.154,-4.125c-6.462,-2.75 -12.083,-6.612 -16.879,-11.529c-4.788,-4.942 -8.5,-10.737 -11.15,-17.408c-2.663,-6.7 -3.979,-13.925 -3.979,-21.771c-0,-7.842 1.316,-15.096 3.979,-21.767Zm10.621,45.588c3.82,7.021 9.066,12.554 15.725,16.587c6.675,4.009 14.279,6.03 22.837,6.03c8.546,-0 16.15,-2.021 22.825,-6.03c6.688,-4.033 11.908,-9.566 15.654,-16.587c3.775,-7.025 5.675,-14.984 5.675,-23.821c0,-8.95 -1.9,-16.938 -5.675,-23.904c-3.746,-6.992 -8.966,-12.463 -15.654,-16.5c-6.675,-4.013 -14.279,-6.029 -22.825,-6.029c-8.558,-0 -16.162,2.016 -22.837,6.029c-6.659,4.037 -11.905,9.508 -15.725,16.5c-3.817,6.966 -5.734,14.954 -5.734,23.904c0,8.837 1.917,16.796 5.734,23.821Z" style="fill:#231f20;fill-rule:nonzero;"></path>
    <clipPath id="_clip1">
      <rect x="170.783" y="171.533" width="174.021" height="172.429"></rect>
    </clipPath>
    <g clip-path="url(#_clip1)">
      <path d="M223.446,177.767c-10.55,4.125 -19.871,10.12 -27.692,17.787c-7.817,7.667 -14.008,16.825 -18.383,27.213c-4.371,10.387 -6.588,21.975 -6.588,34.412c0,12.288 2.13,23.846 6.342,34.379c4.221,10.563 10.35,19.871 18.171,27.684c7.804,7.812 17.108,13.983 27.65,18.283c10.533,4.275 22.254,6.437 34.85,6.437c12.579,0 24.312,-2.162 34.846,-6.437c10.529,-4.3 19.816,-10.471 27.55,-18.283c7.746,-7.813 13.854,-17.121 18.141,-27.684c4.288,-10.504 6.471,-22.091 6.471,-34.379c0,-12.437 -2.183,-23.996 -6.471,-34.383c-4.3,-10.417 -10.504,-19.575 -18.412,-27.242c-7.879,-7.667 -17.196,-13.662 -27.659,-17.787c-10.466,-4.129 -22.062,-6.234 -34.466,-6.234c-12.254,0 -23.821,2.105 -34.35,6.234Zm2.067,153.47c-9.73,-3.954 -18.267,-9.6 -25.442,-16.77c-7.175,-7.167 -12.763,-15.709 -16.642,-25.425c-3.9,-9.742 -5.875,-20.454 -5.875,-31.863c0,-11.558 2.038,-22.241 6.067,-31.779c4.017,-9.567 9.692,-17.963 16.867,-24.988c7.175,-7.049 15.737,-12.554 25.429,-16.329c9.733,-3.833 20.475,-5.762 31.879,-5.762c11.55,-0 22.304,1.929 31.979,5.762c9.621,3.775 18.196,9.309 25.425,16.329c7.238,7.025 12.917,15.421 16.871,24.959c3.958,9.567 5.95,20.25 5.95,31.808c-0,11.409 -1.992,22.121 -5.967,31.833c-3.954,9.717 -9.571,18.288 -16.654,25.455c-7.104,7.17 -15.608,12.816 -25.325,16.77c-9.704,3.95 -20.583,5.967 -32.279,5.967c-11.704,0 -22.575,-2.017 -32.283,-5.967Z" style="fill:url(#_Linear2);"></path>
    </g>
  </g>
  <defs>
    <linearGradient id="_Linear2" x1="0" y1="0" x2="1" y2="0" gradientUnits="userSpaceOnUse" gradientTransform="matrix(174.033,0,0,-174.033,170.768,257.755)">
      <stop offset="0" style="stop-color:#8cc63f;stop-opacity:1"></stop>
      <stop offset="1" style="stop-color:#066939;stop-opacity:1"></stop>
    </linearGradient>
  </defs>
</svg>
