<svg xmlns="http://www.w3.org/2000/svg" xmlns:xlink="http://www.w3.org/1999/xlink" width="211.846" height="52.538" viewBox="0 0 211.846 52.538">
  <defs>
    <clipPath id="clip-path">
      <rect id="Rectangle_32207" data-name="Rectangle 32207" width="211.846" height="52.538" fill="none"/>
    </clipPath>
  </defs>
  <g id="Group_3245" data-name="Group 3245" clip-path="url(#clip-path)">
    <path id="Path_3777" data-name="Path 3777" d="M257.385,159.932a4.041,4.041,0,0,1,1.2.171,2.845,2.845,0,0,1,.958.5,2.289,2.289,0,0,1,.633.806,2.529,2.529,0,0,1,.228,1.1.242.242,0,0,1-.05.177.223.223,0,0,1-.158.047h-5.546v.112a3.115,3.115,0,0,0,.2,1.163,2.255,2.255,0,0,0,.572.841,2.4,2.4,0,0,0,.9.511,3.769,3.769,0,0,0,1.174.171,4.554,4.554,0,0,0,1-.1,4.5,4.5,0,0,0,.714-.219,4.3,4.3,0,0,0,.46-.219.6.6,0,0,1,.247-.1.2.2,0,0,1,.154.059l.2.189a2.014,2.014,0,0,1-.49.331,4.017,4.017,0,0,1-.68.263,6.159,6.159,0,0,1-.8.174,5.711,5.711,0,0,1-.861.065,4.652,4.652,0,0,1-1.437-.21,3.162,3.162,0,0,1-1.113-.611,2.712,2.712,0,0,1-.719-.983,3.305,3.305,0,0,1-.254-1.332,2.855,2.855,0,0,1,.236-1.166,2.6,2.6,0,0,1,.68-.921,3.2,3.2,0,0,1,1.089-.605,4.553,4.553,0,0,1,1.464-.219m.011.419a3.69,3.69,0,0,0-1.064.142,2.487,2.487,0,0,0-.814.407,2.147,2.147,0,0,0-.555.638,2.384,2.384,0,0,0-.281.833h5.06a2.037,2.037,0,0,0-.17-.847,1.777,1.777,0,0,0-.478-.635,2.165,2.165,0,0,0-.741-.4,3.123,3.123,0,0,0-.956-.139" transform="translate(-184.807 -116.403)" fill="#111"/>
    <path id="Path_3778" data-name="Path 3778" d="M287.747,154.127a.188.188,0,0,1-.17.083.5.5,0,0,1-.22-.074,3.809,3.809,0,0,0-.355-.165,3.443,3.443,0,0,0-.541-.165,3.554,3.554,0,0,0-.784-.074,2.971,2.971,0,0,0-.761.091,2.136,2.136,0,0,0-.587.245,1.231,1.231,0,0,0-.378.356.76.76,0,0,0-.135.427.618.618,0,0,0,.185.459,1.571,1.571,0,0,0,.487.312,4.394,4.394,0,0,0,.683.224q.383.094.784.189t.784.21a3.33,3.33,0,0,1,.684.286,1.558,1.558,0,0,1,.487.42.977.977,0,0,1,.185.6,1.461,1.461,0,0,1-.182.714,1.7,1.7,0,0,1-.525.573,2.755,2.755,0,0,1-.846.384,4.205,4.205,0,0,1-1.143.142,4.4,4.4,0,0,1-1.4-.2,4.208,4.208,0,0,1-1.05-.517l.177-.2a.272.272,0,0,1,.085-.071.294.294,0,0,1,.131-.024.489.489,0,0,1,.247.094,3.184,3.184,0,0,0,.382.2,3.647,3.647,0,0,0,.587.2,3.394,3.394,0,0,0,.869.094,3.206,3.206,0,0,0,.857-.1,1.952,1.952,0,0,0,.618-.281,1.218,1.218,0,0,0,.375-.416,1.06,1.06,0,0,0,.127-.505.683.683,0,0,0-.185-.49,1.536,1.536,0,0,0-.487-.331,4.006,4.006,0,0,0-.684-.23q-.382-.095-.788-.189t-.788-.207a3.2,3.2,0,0,1-.684-.283,1.576,1.576,0,0,1-.487-.416.984.984,0,0,1-.185-.611,1.134,1.134,0,0,1,.178-.6,1.655,1.655,0,0,1,.506-.508,2.766,2.766,0,0,1,.8-.348,3.972,3.972,0,0,1,1.058-.13,4.538,4.538,0,0,1,1.247.156,3.294,3.294,0,0,1,1,.476Zm-.039-3.307-1.668,1.494a.332.332,0,0,1-.128.08.527.527,0,0,1-.158.02h-.44l1.213-1.405a.492.492,0,0,1,.178-.148.722.722,0,0,1,.278-.041Z" transform="translate(-205.938 -109.771)" fill="#111"/>
    <path id="Path_3779" data-name="Path 3779" d="M309.429,165.9v-5.876h.4c.134,0,.211.05.232.148l.07.886a4.187,4.187,0,0,1,1.224-.818,3.8,3.8,0,0,1,1.557-.31,3.686,3.686,0,0,1,1.116.154,2.116,2.116,0,0,1,.8.443,1.866,1.866,0,0,1,.479.7,2.477,2.477,0,0,1,.162.921V165.9h-.733v-3.756a1.7,1.7,0,0,0-.495-1.3,2.13,2.13,0,0,0-1.514-.469,3.327,3.327,0,0,0-1.406.3,3.887,3.887,0,0,0-1.159.818V165.9Z" transform="translate(-225.21 -116.402)" fill="#111"/>
    <path id="Path_3780" data-name="Path 3780" d="M341.5,159.932a4.041,4.041,0,0,1,1.2.171,2.846,2.846,0,0,1,.958.5,2.288,2.288,0,0,1,.633.806,2.528,2.528,0,0,1,.228,1.1.242.242,0,0,1-.05.177.223.223,0,0,1-.158.047h-5.546v.112a3.117,3.117,0,0,0,.2,1.163,2.255,2.255,0,0,0,.572.841,2.406,2.406,0,0,0,.9.511,3.769,3.769,0,0,0,1.174.171,4.555,4.555,0,0,0,1-.1,4.508,4.508,0,0,0,.714-.219,4.282,4.282,0,0,0,.46-.219.6.6,0,0,1,.247-.1.2.2,0,0,1,.154.059l.2.189a2.012,2.012,0,0,1-.49.331,4.016,4.016,0,0,1-.68.263,6.152,6.152,0,0,1-.8.174,5.711,5.711,0,0,1-.861.065,4.651,4.651,0,0,1-1.437-.21,3.163,3.163,0,0,1-1.113-.611,2.711,2.711,0,0,1-.719-.983,3.3,3.3,0,0,1-.254-1.332,2.855,2.855,0,0,1,.236-1.166,2.6,2.6,0,0,1,.68-.921,3.2,3.2,0,0,1,1.089-.605,4.553,4.553,0,0,1,1.464-.219m.011.419a3.691,3.691,0,0,0-1.065.142,2.487,2.487,0,0,0-.814.407,2.145,2.145,0,0,0-.555.638,2.383,2.383,0,0,0-.281.833h5.059a2.037,2.037,0,0,0-.17-.847,1.778,1.778,0,0,0-.478-.635,2.165,2.165,0,0,0-.741-.4,3.123,3.123,0,0,0-.956-.139" transform="translate(-246.03 -116.403)" fill="#111"/>
    <path id="Path_3781" data-name="Path 3781" d="M389.915,158.873q.564,0,1.027-.044a7.136,7.136,0,0,0,.861-.133,6.542,6.542,0,0,0,.757-.216q.359-.127.722-.286v-2.25h-2.1a.24.24,0,0,1-.143-.041.117.117,0,0,1-.058-.094v-.331H394v2.97a7.767,7.767,0,0,1-.85.39,6.764,6.764,0,0,1-.942.287,9.2,9.2,0,0,1-1.082.177,11.869,11.869,0,0,1-1.267.062,7.239,7.239,0,0,1-2.159-.3,5.073,5.073,0,0,1-1.676-.862,3.9,3.9,0,0,1-1.085-1.349,4.195,4.195,0,0,1,0-3.516,3.847,3.847,0,0,1,1.1-1.346,5.166,5.166,0,0,1,1.726-.862,7.917,7.917,0,0,1,2.275-.3,9.464,9.464,0,0,1,1.155.065,6.73,6.73,0,0,1,.985.192,5.338,5.338,0,0,1,.85.313,5.9,5.9,0,0,1,.757.428l-.208.26a.233.233,0,0,1-.194.089.364.364,0,0,1-.131-.024,1.738,1.738,0,0,1-.336-.165,4.009,4.009,0,0,0-.595-.272,6.052,6.052,0,0,0-.938-.254,7.125,7.125,0,0,0-1.367-.112,6.622,6.622,0,0,0-1.923.26,4.323,4.323,0,0,0-1.464.744,3.282,3.282,0,0,0-.935,1.181,3.628,3.628,0,0,0-.328,1.565,3.672,3.672,0,0,0,.332,1.588,3.374,3.374,0,0,0,.931,1.19,4.242,4.242,0,0,0,1.437.747,6.222,6.222,0,0,0,1.85.26" transform="translate(-279.888 -109.77)" fill="#111"/>
    <path id="Path_3782" data-name="Path 3782" d="M427.179,165.886V160.01h.386a.333.333,0,0,1,.189.041.18.18,0,0,1,.066.142l.062,1.24a2.9,2.9,0,0,1,.989-1.119,2.721,2.721,0,0,1,1.522-.4,3.409,3.409,0,0,1,.641.056,2.961,2.961,0,0,1,.556.162l-.1.39c-.016.063-.067.094-.154.094a.528.528,0,0,1-.131-.023q-.085-.024-.212-.053a3.155,3.155,0,0,0-.313-.053,3.442,3.442,0,0,0-.425-.023,2.349,2.349,0,0,0-1.433.413,2.919,2.919,0,0,0-.908,1.193v3.821Z" transform="translate(-310.912 -116.387)" fill="#111"/>
    <path id="Path_3783" data-name="Path 3783" d="M453.024,160.515a.3.3,0,0,1-.108.224l-4.812,4.972h4.727v.443h-5.616v-.224a.331.331,0,0,1,.116-.219l4.828-4.99H447.47v-.443h5.554Z" transform="translate(-325.494 -116.655)" fill="#111"/>
    <path id="Path_3784" data-name="Path 3784" d="M474.153,168.044a.416.416,0,0,1-.12.136.358.358,0,0,1-.213.053H473.3l1.351-2.3-3.252-5.657h.61a.32.32,0,0,1,.182.044.3.3,0,0,1,.1.1l2.588,4.57a1.7,1.7,0,0,1,.081.18c.023.061.045.123.066.186.026-.063.053-.125.081-.186s.058-.121.089-.18l2.556-4.57a.284.284,0,0,1,.108-.1.316.316,0,0,1,.154-.038h.564Z" transform="translate(-343.093 -116.655)" fill="#111"/>
    <path id="Path_3785" data-name="Path 3785" d="M503.295,158.891V150.3h.734l.008,3.744a3.833,3.833,0,0,1,1.182-.821,3.665,3.665,0,0,1,1.514-.3,3.088,3.088,0,0,1,2.206.747,2.949,2.949,0,0,1,.792,2.247,3.245,3.245,0,0,1-.221,1.2,2.691,2.691,0,0,1-.65.968,3.078,3.078,0,0,1-1.052.647,4.028,4.028,0,0,1-1.435.236,3.622,3.622,0,0,1-1.385-.239,2.707,2.707,0,0,1-1-.705l-.046.72c-.016.1-.084.148-.206.148Zm3.225-5.521a3.125,3.125,0,0,0-1.385.3,3.644,3.644,0,0,0-1.106.839v3.1a2.458,2.458,0,0,0,.975.711,3.833,3.833,0,0,0,2.422.015,2.331,2.331,0,0,0,.855-.535,2.226,2.226,0,0,0,.518-.827,3.09,3.09,0,0,0,.174-1.06,2.587,2.587,0,0,0-.634-1.928,2.5,2.5,0,0,0-1.818-.617" transform="translate(-366.311 -109.391)" fill="#111"/>
    <path id="Path_3786" data-name="Path 3786" d="M530.289,168.044a.413.413,0,0,1-.119.136.359.359,0,0,1-.213.053h-.525l1.351-2.3-3.252-5.657h.61a.32.32,0,0,1,.182.044.3.3,0,0,1,.1.1l2.588,4.57a1.684,1.684,0,0,1,.081.18c.023.061.045.123.066.186.026-.063.053-.125.081-.186s.058-.121.089-.18l2.557-4.57a.282.282,0,0,1,.108-.1.316.316,0,0,1,.154-.038h.564Z" transform="translate(-383.95 -116.655)" fill="#111"/>
    <path id="Path_3787" data-name="Path 3787" d="M570.56,151.432a.36.36,0,0,1-.058.2.616.616,0,0,1-.151.162.73.73,0,0,1-.216.112.848.848,0,0,1-.525,0,.721.721,0,0,1-.216-.112.557.557,0,0,1-.147-.162.38.38,0,0,1-.054-.2.411.411,0,0,1,.054-.2.537.537,0,0,1,.147-.168.734.734,0,0,1,.216-.112.854.854,0,0,1,.525,0,.743.743,0,0,1,.216.112.589.589,0,0,1,.151.168.389.389,0,0,1,.058.2m-.324,7.9H569.5v-5.876h.734Z" transform="translate(-414.273 -109.833)" fill="#111"/>
    <path id="Path_3788" data-name="Path 3788" d="M609.543,155.089a4.007,4.007,0,0,1-.378,1.757,3.875,3.875,0,0,1-1.066,1.346,4.953,4.953,0,0,1-1.645.862,7.512,7.512,0,0,1-4.233,0,4.953,4.953,0,0,1-1.645-.862,3.911,3.911,0,0,1-1.07-1.346,4.216,4.216,0,0,1,0-3.508,3.915,3.915,0,0,1,1.07-1.346,5,5,0,0,1,1.645-.865,6.878,6.878,0,0,1,2.109-.307,6.992,6.992,0,0,1,2.124.3,4.926,4.926,0,0,1,1.645.865,3.908,3.908,0,0,1,1.066,1.349,4,4,0,0,1,.378,1.751m-.819,0a3.758,3.758,0,0,0-.317-1.571,3.311,3.311,0,0,0-.892-1.181,4,4,0,0,0-1.386-.741,5.944,5.944,0,0,0-1.8-.257,5.85,5.85,0,0,0-1.781.257,4.1,4.1,0,0,0-1.391.741,3.307,3.307,0,0,0-.9,1.181,4.014,4.014,0,0,0,0,3.144,3.319,3.319,0,0,0,.9,1.178,4.056,4.056,0,0,0,1.391.738,5.911,5.911,0,0,0,1.781.254,6.006,6.006,0,0,0,1.8-.254,3.967,3.967,0,0,0,1.386-.738,3.324,3.324,0,0,0,.892-1.178,3.751,3.751,0,0,0,.317-1.573" transform="translate(-436.057 -109.77)" fill="#111"/>
    <path id="Path_3789" data-name="Path 3789" d="M642.863,160.2h.564a.326.326,0,0,1,.178.044.228.228,0,0,1,.093.1l1.939,4.636a2.017,2.017,0,0,1,.085.26l.062.248c.025-.083.054-.165.085-.248s.067-.169.108-.26l2.063-4.677a.21.21,0,0,1,.216-.13h.3a.217.217,0,0,1,.224.13l2.031,4.677a3.946,3.946,0,0,1,.185.514c.02-.082.043-.166.066-.251a1.76,1.76,0,0,1,.1-.263l1.947-4.636a.255.255,0,0,1,.263-.142h.541l-2.572,5.876H650.8a.184.184,0,0,1-.178-.124l-2.109-4.771q-.039-.089-.069-.177c-.021-.059-.038-.118-.054-.177-.016.059-.032.118-.05.177a1.7,1.7,0,0,1-.065.177l-2.132,4.771a.18.18,0,0,1-.185.124h-.518Z" transform="translate(-467.892 -116.577)" fill="#111"/>
    <path id="Path_3790" data-name="Path 3790" d="M691.386,159.932a4.71,4.71,0,0,1,1.48.216,3.118,3.118,0,0,1,1.1.611,2.616,2.616,0,0,1,.684.954,3.424,3.424,0,0,1,0,2.5,2.613,2.613,0,0,1-.684.951,3.08,3.08,0,0,1-1.1.608,5.253,5.253,0,0,1-2.959,0,3.125,3.125,0,0,1-1.1-.608,2.592,2.592,0,0,1-.687-.951,3.418,3.418,0,0,1,0-2.5,2.6,2.6,0,0,1,.687-.954,3.163,3.163,0,0,1,1.1-.611,4.706,4.706,0,0,1,1.479-.216m0,5.6a3.63,3.63,0,0,0,1.2-.18,2.283,2.283,0,0,0,.857-.517,2.113,2.113,0,0,0,.514-.812,3.419,3.419,0,0,0,0-2.129,2.138,2.138,0,0,0-.514-.818,2.293,2.293,0,0,0-.857-.523,4.03,4.03,0,0,0-2.4,0,2.294,2.294,0,0,0-.857.523,2.177,2.177,0,0,0-.518.818,3.344,3.344,0,0,0,0,2.129,2.152,2.152,0,0,0,.518.812,2.283,2.283,0,0,0,.857.517,3.633,3.633,0,0,0,1.2.18" transform="translate(-500.656 -116.403)" fill="#111"/>
    <path id="Path_3791" data-name="Path 3791" d="M724.246,160.812a.845.845,0,0,1-.074.05.189.189,0,0,1-.1.021.466.466,0,0,1-.212-.08,3.126,3.126,0,0,0-.36-.174,3.635,3.635,0,0,0-.56-.174,4.043,4.043,0,0,0-1.993.1,2.358,2.358,0,0,0-.865.517,2.222,2.222,0,0,0-.537.815,3.244,3.244,0,0,0,0,2.173,2.208,2.208,0,0,0,.537.806,2.316,2.316,0,0,0,.842.5,3.337,3.337,0,0,0,1.1.171,3.659,3.659,0,0,0,.931-.1,3.555,3.555,0,0,0,.618-.218,2.9,2.9,0,0,0,.386-.219.445.445,0,0,1,.228-.1.2.2,0,0,1,.154.059l.2.189a2.1,2.1,0,0,1-.448.331,3.338,3.338,0,0,1-.61.266,4.627,4.627,0,0,1-.738.174,5.416,5.416,0,0,1-.83.062,4.188,4.188,0,0,1-1.34-.2,2.979,2.979,0,0,1-1.043-.59,2.66,2.66,0,0,1-.68-.948,3.419,3.419,0,0,1-.012-2.5,2.651,2.651,0,0,1,.676-.957,3.1,3.1,0,0,1,1.089-.623,4.551,4.551,0,0,1,1.479-.221,4.452,4.452,0,0,1,1.332.183,3.517,3.517,0,0,1,1.016.5Z" transform="translate(-523.026 -116.403)" fill="#111"/>
    <path id="Path_3792" data-name="Path 3792" d="M749.271,159.932a4.041,4.041,0,0,1,1.2.171,2.847,2.847,0,0,1,.958.5,2.287,2.287,0,0,1,.633.806,2.526,2.526,0,0,1,.228,1.1.241.241,0,0,1-.05.177.223.223,0,0,1-.158.047h-5.546v.112a3.118,3.118,0,0,0,.2,1.163,2.259,2.259,0,0,0,.572.841,2.407,2.407,0,0,0,.9.511,3.77,3.77,0,0,0,1.174.171,4.555,4.555,0,0,0,1-.1,4.5,4.5,0,0,0,.714-.219,4.252,4.252,0,0,0,.46-.219.6.6,0,0,1,.247-.1.2.2,0,0,1,.154.059l.2.189a2.016,2.016,0,0,1-.49.331,4.005,4.005,0,0,1-.68.263,6.142,6.142,0,0,1-.8.174,5.711,5.711,0,0,1-.861.065,4.653,4.653,0,0,1-1.437-.21,3.163,3.163,0,0,1-1.113-.611,2.713,2.713,0,0,1-.719-.983,3.3,3.3,0,0,1-.254-1.332,2.862,2.862,0,0,1,.236-1.166,2.6,2.6,0,0,1,.68-.921,3.2,3.2,0,0,1,1.089-.605,4.55,4.55,0,0,1,1.464-.219m.011.419a3.69,3.69,0,0,0-1.065.142,2.486,2.486,0,0,0-.814.407,2.142,2.142,0,0,0-.555.638,2.37,2.37,0,0,0-.282.833h5.06a2.033,2.033,0,0,0-.17-.847,1.771,1.771,0,0,0-.478-.635,2.158,2.158,0,0,0-.74-.4,3.125,3.125,0,0,0-.956-.139" transform="translate(-542.814 -116.403)" fill="#111"/>
    <path id="Path_3793" data-name="Path 3793" d="M12.446,20.331a31.612,31.612,0,0,1-.663,9.826c-1.216,4.93-.775,7.44.93,10.651s3.067,5.466,3.274,5.891,1.39,1.974,1.39,1.974.345,2.527,1.47,3.067,3.78,1.274,5.723.374,1.98-1.922,3.208-2.139,3.088.1,3.385-1.062-.6-.817.7-1.51a25.931,25.931,0,0,1,2.349-1.249c.806-.328.477-.453.792-1.156s-.2-1.167.073-2.046a11.694,11.694,0,0,0-.219-9.023c-1.965-5.014-6.009-11.6-6.877-13.852s-1.322-3.648-1.322-3.648a44.015,44.015,0,0,0,6.3-3.981c1.6-1.484,1.625-1.767,1.625-1.767s-1.007-6.293-6.468-8.747a20.655,20.655,0,0,0-16.495-.408C6.829,3.667,5.105,5.821,3.085,7.2A8.137,8.137,0,0,0,.011,13.749,23.437,23.437,0,0,0,.83,18.135s.652.623,4.314,1.824,4.945.42,5.511.32a8.627,8.627,0,0,1,1.791.052" transform="translate(0 0)" fill="#111" fill-rule="evenodd"/>
    <path id="Path_3794" data-name="Path 3794" d="M5.664,19.429a9.407,9.407,0,0,1,7.046-1.8A25.66,25.66,0,0,0,23.95,16.007c2.438-.895,6.379-3.257,8.9-3.426a18.6,18.6,0,0,1,4.288.165s-1.15-6.083-7.112-8.171S18.148,2.889,14.4,5.217,5.94,10.412,5.21,14.147s.454,5.282.454,5.282" transform="translate(-3.619 -2.341)" fill="#74271f" fill-rule="evenodd"/>
    <path id="Path_3795" data-name="Path 3795" d="M10.09,60.705a5.822,5.822,0,0,1,3.528-1.272,15.7,15.7,0,0,1,3.959.038,6.777,6.777,0,0,0,1.981.021,3.077,3.077,0,0,1,.571,1.47,4.283,4.283,0,0,1,.1,1.184,15.265,15.265,0,0,1-6.345.291c-3.5-.582-3.8-1.732-3.8-1.732" transform="translate(-7.344 -43.187)" fill="#ffda1b" fill-rule="evenodd"/>
    <path id="Path_3796" data-name="Path 3796" d="M46.632,53.714s1.336,2.537.831,7.157S45.535,70,46.034,73.512a18.5,18.5,0,0,0,2.829,7.636c1.178,1.917,1.848,3,1.848,3a1.3,1.3,0,0,1,1.8-.688c1.242.612,1.381.772,1.741.246s.526,1.294-1,1.1-1.858-.318-1.682.76-.473,2.025,1.1,2.764a5.416,5.416,0,0,0,4.671-.271c1.022-.644,1.683-.762,1.318-1.806s-.593-1.56-.593-1.56.711-.31,1.331.967,1.242-1.33.968-2.021.742-.963,1.417-.251,1.48.386,1.3-.694.527-.648.469-1.655.369-1.268.369-1.268a4.006,4.006,0,0,0,.545,1.753c.53.924,1.367-.056,1.448,1.039s2.1-2.221,2.444-5.147-.611-5.9-2.378-9.75-4.655-8.606-6.059-11.408-2.226-4.875-2.226-4.875a57.524,57.524,0,0,0-5.908,1.23,44.7,44.7,0,0,1-5.152,1.1" transform="translate(-33.429 -37.401)" fill="#fff" fill-rule="evenodd"/>
    <path id="Path_3797" data-name="Path 3797" d="M80.663,42.89a33.307,33.307,0,0,1,5.144-2.3,10.38,10.38,0,0,1,4.582-.626c1.318.136,1.529.192,1.529.192a23.752,23.752,0,0,1-3.97,2.643,20.681,20.681,0,0,1-3.175,1.487l-.946-1.774-1.579,0Z" transform="translate(-58.709 -29.05)" fill="#ffda1b" fill-rule="evenodd"/>
    <path id="Path_3798" data-name="Path 3798" d="M20.813,15.866c.139.161-2.345,2.82-2.1,4.164S21.553,22.669,25,22.615s8.2-1.914,10.858-3.125,4.123-9.419-5.326-7.748-9.855,3.964-9.715,4.123" transform="translate(-13.606 -8.384)" fill="#ad5316" fill-rule="evenodd"/>
    <path id="Path_3799" data-name="Path 3799" d="M36.629,15.293s4.833-.023,5.219,3.052-2.1,4.163-7.556,4.85-7.968-3.766-4.221-5.724a18.9,18.9,0,0,1,6.557-2.177" transform="translate(-20.589 -11.131)" fill="#e5930a" fill-rule="evenodd"/>
    <path id="Path_3800" data-name="Path 3800" d="M39.184,21.146c.185.337-.271,2.821,3.122,2.961s4.752-3.06,2.458-4.318-2.681-.45-4.054-.023-1.71,1.043-1.526,1.38" transform="translate(-28.485 -13.911)" fill="#ffb800" fill-rule="evenodd"/>
    <path id="Path_3801" data-name="Path 3801" d="M46.63,53.715h0a44.719,44.719,0,0,0,5.152-1.1,57.191,57.191,0,0,1,5.908-1.231s.823,2.073,2.227,4.875,4.291,7.561,6.058,11.408,2.721,6.822,2.379,9.749-2.364,6.244-2.444,5.148c-.029-.385-.151-.514-.32-.559.956-2.828.681-7.844.177-7-.554.932-2.9,2.179-2.649.84s-.158-2.561-2.461-3.077-2.159-2.67-1.07-4.989-.544-5.636-2.659-4.245-3.446.425-4.364-1.631-2.879-1.616-3.172,1.116-.571,2.411-2.137,5.187a11.469,11.469,0,0,0-1.242,5.15c-.437-3.494.952-7.937,1.45-12.491.5-4.62-.832-7.157-.832-7.157M53.719,84.8a1.5,1.5,0,0,1-.472.01c-1.529-.192-1.858-.318-1.682.76s-.473,2.025,1.1,2.764a5.409,5.409,0,0,0,4.671-.272c1.021-.643,1.682-.76,1.318-1.8s-.594-1.56-.594-1.56.711-.31,1.332.966,1.242-1.329.968-2.02.743-.964,1.417-.251,1.48.386,1.3-.693.527-.648.469-1.655.369-1.267.369-1.267a4.008,4.008,0,0,0,.545,1.753l.018.033a7.633,7.633,0,0,0-.135-2.045c-.431-1.312-1.749-1.448-2.024-.2s-.046,1.764-.757,2.075-1.039.184-1.844.512-.734.222-.766.875.2,1.167-.82,1.44-1.831-.6-1.9,1.076-.027,2.223-1.3,2.264A1.953,1.953,0,0,1,53.157,86.4s-.423-.11.391-1.179a.773.773,0,0,0,.17-.417" transform="translate(-33.427 -37.401)" fill="#ffcb91" fill-rule="evenodd"/>
    <path id="Path_3802" data-name="Path 3802" d="M48.509,53.714A11.946,11.946,0,0,1,49.453,59a7.84,7.84,0,0,0,.82-3.005c.167-2.063,2.52-1.74,3.891-.226s2.2.9,3.113-.181,2.754.345,4.185,2.864,9.149,11.14,7.5,20.954c-.162.96-.269,1.824-.332,2.6a12.463,12.463,0,0,0,1.606-4.583c.343-2.928-.611-5.9-2.378-9.75S63.2,59.065,61.8,56.262s-2.226-4.875-2.226-4.875a57.524,57.524,0,0,0-5.908,1.23,44.7,44.7,0,0,1-5.152,1.1" transform="translate(-35.306 -37.401)" fill="#e39e56" fill-rule="evenodd"/>
    <path id="Path_3803" data-name="Path 3803" d="M97.614,16.441c.118.073-2.135-4.522-6.01-5.778s.783,1.526,1.134,3.684.607,2.388,2.047,2.225a13.5,13.5,0,0,1,2.829-.131" transform="translate(-65.558 -7.533)" fill="#111" fill-rule="evenodd"/>
    <path id="Path_3804" data-name="Path 3804" d="M24,62.306s-3.713-.726-5.325-.287-.662,1.269,2.31,1.666,3.984-.474,3.984-.474Z" transform="translate(-13.027 -45.036)" fill="#ffb800" fill-rule="evenodd"/>
    <path id="Path_3805" data-name="Path 3805" d="M95.5,43.368c.1.06,3.613-2.253,4.678-1.288S98.788,43.4,97.43,43.872s-1.911.875-1.945.42-.086-.984.012-.924" transform="translate(-69.464 -30.455)" fill="#ffb800" fill-rule="evenodd"/>
    <path id="Path_3806" data-name="Path 3806" d="M44.321,21.58c-.119.174-1.409,1.555.916,1.989s3.34-.745,2.607-1.691a2.736,2.736,0,0,0-2.4-1.035,1.515,1.515,0,0,0-1.125.737" transform="translate(-31.921 -15.166)" fill="#fff" fill-rule="evenodd"/>
    <path id="Path_3807" data-name="Path 3807" d="M181.325,44.841h0q-.107.3-.237.605a25.083,25.083,0,0,1-1.965,3.677,9.477,9.477,0,0,1-2.916,2.9,9.244,9.244,0,0,1-2.527,1.058,11.3,11.3,0,0,1-2.873.367,9.323,9.323,0,0,1-5.183-1.513,5.3,5.3,0,0,1-2.332-4.8,6.268,6.268,0,0,1,.107-1.081c.072-.4.151-.808.238-1.211a1.566,1.566,0,0,0,.065-.26,1.6,1.6,0,0,0,.022-.259,9.146,9.146,0,0,0,.194-1.017,7.233,7.233,0,0,0,.065-.928,2.974,2.974,0,0,0-.109-.844,2.211,2.211,0,0,0-.323-.67,1.562,1.562,0,0,0-.863-.585,6.287,6.287,0,0,0-1.6-.237q-.562,1.643-1.124,3.264t-1.123,3.266q-.3.82-.561,1.622t-.562,1.621a4.358,4.358,0,0,1-2.527,2.53,11.8,11.8,0,0,1-4.21,1.017,3.064,3.064,0,0,1-.5.043h-.5a12.455,12.455,0,0,1-2.57-.259,7.571,7.571,0,0,1-2.095-.735,1.455,1.455,0,0,0-.238-.129,1.383,1.383,0,0,1-.237-.129l-.216-.109a2.012,2.012,0,0,0-.26-.108l.26-.259.259-.26a11.386,11.386,0,0,0,1.231-1.447,7.144,7.144,0,0,0,.886-1.706q1.122-3.327,2.267-6.59t2.224-6.546a13.419,13.419,0,0,1,.842-1.921,14.346,14.346,0,0,1,1.1-1.75c-.376.115-.764.245-1.167.389a10.758,10.758,0,0,0-1.209.518,14.543,14.543,0,0,0-3.2,2.138,6.233,6.233,0,0,0-1.986,2.916,3.924,3.924,0,0,0-.174.712,4.63,4.63,0,0,0-.043.583,1.568,1.568,0,0,0,.26.929,2.782,2.782,0,0,0,.691.669,4.922,4.922,0,0,0,.562.324q.3.151.648.368a9.65,9.65,0,0,1-2.03,1.836,4.41,4.41,0,0,1-2.721.626,3.922,3.922,0,0,1-2.959-1.274A4.15,4.15,0,0,1,139.1,39.4a5.2,5.2,0,0,1,.151-1.231,7.684,7.684,0,0,1,.41-1.231,9.471,9.471,0,0,1,2.98-3.577,21.359,21.359,0,0,1,5.1-2.845,33.175,33.175,0,0,1,6.479-1.875,39.035,39.035,0,0,1,7.257-.668h.129q1.121,0,3.239.066t4.449.365a21.612,21.612,0,0,1,5.918,1.7,4.042,4.042,0,0,1,2.678,3.855,4.386,4.386,0,0,1-1.663,3.533,11.121,11.121,0,0,1-3.606,2.025c-.376.115-.734.216-1.081.3s-.677.157-.994.215a6.388,6.388,0,0,1,1.3,1.1,4.355,4.355,0,0,1,.864,1.491q.173.477.367,1.125t.411,1.384a14.116,14.116,0,0,0,.929,2.184,1.576,1.576,0,0,0,1.361,1.017,2.042,2.042,0,0,0,.756-.281,3.564,3.564,0,0,0,.885-.8,6.211,6.211,0,0,0,1.123-1.752q.388-.928.735-1.88a.48.48,0,0,1,.022-.152,1.117,1.117,0,0,1,.064-.151l2.2.908c-.087.2-.166.4-.238.605M169.683,30.933a4.4,4.4,0,0,0-1.814-.367,3.959,3.959,0,0,0-3.455,1.572,14.5,14.5,0,0,0-1.815,3.468q-.173.474-.324.969c-.1.33-.208.64-.324.927a1.031,1.031,0,0,0-.064.151.323.323,0,0,0-.022.107h1.123q1.382,0,2.677-.13a5.222,5.222,0,0,0,2.549-1.037,6,6,0,0,0,1.619-1.808,4.475,4.475,0,0,0,.67-2.326,1.5,1.5,0,0,0-.822-1.528" transform="translate(-101.243 -20.362)" fill="#111"/>
    <path id="Path_3808" data-name="Path 3808" d="M309.551,72.674a1.232,1.232,0,0,0-.108.238q-.735,1.47-1.62,2.9a10.848,10.848,0,0,1-2.137,2.508,9.127,9.127,0,0,1-2.7,1.534,10.073,10.073,0,0,1-3.434.539,5.982,5.982,0,0,1-3.239-.864,3.788,3.788,0,0,1-1.684-2.807,13.894,13.894,0,0,1-3.435,2.635,8.6,8.6,0,0,1-4.211,1.08,4.093,4.093,0,0,1-3.435-1.407,5.153,5.153,0,0,1-1.1-3.268,6.572,6.572,0,0,1,.129-1.3,8.757,8.757,0,0,1,.346-1.253q.388-1.081.755-2.14t.713-2.1q.346-1.081.713-2.14t.756-2.1h8.207q-.432,1.21-.842,2.42t-.8,2.42q-.431,1.21-.842,2.42t-.842,2.419c-.029.116-.065.238-.109.367a1.177,1.177,0,0,0-.064.368.632.632,0,0,0,.151.433.694.694,0,0,0,.54.173,2.416,2.416,0,0,0,1.058-.324,4.645,4.645,0,0,0,1.361-1.232,10.4,10.4,0,0,0,1.62-2.528q.669-1.447,1.231-2.961.216-.691.453-1.4t.5-1.4a2.183,2.183,0,0,1,.108-.324,2.214,2.214,0,0,0,.108-.324.467.467,0,0,1,.022-.152.269.269,0,0,1,.065-.109.13.13,0,0,1,.043-.086.19.19,0,0,1,.022-.086.2.2,0,0,0,.021-.086h8.163q-.432,1.168-.842,2.356t-.8,2.358q-.39,1.21-.8,2.4t-.842,2.357a3.172,3.172,0,0,0-.173.627,3.3,3.3,0,0,0-.044.5.687.687,0,0,0,.151.5.556.556,0,0,0,.41.151,1.417,1.417,0,0,0,.562-.129c.2-.086.418-.187.647-.3.144-.114.288-.229.432-.345l.432-.347a7.1,7.1,0,0,0,1.338-1.578,14.438,14.438,0,0,0,.951-1.838l2.2,1.038c-.03.058-.066.122-.109.194" transform="translate(-205.573 -47.118)" fill="#111"/>
    <path id="Path_3809" data-name="Path 3809" d="M395,77.624a8.35,8.35,0,0,1-6.241,2.306c-.172,0-.346-.007-.518-.021s-.346-.022-.518-.022a8.459,8.459,0,0,1-2.073-.517,3.7,3.7,0,0,1-1.641-1.253,4.168,4.168,0,0,1-.626-1.274,4.858,4.858,0,0,1-.195-1.361,5.5,5.5,0,0,1,.044-.691c.028-.231.058-.446.086-.648a9.967,9.967,0,0,1,.368-1.382q.237-.691.454-1.3.042-.13.172-.432t.3-.692a3.361,3.361,0,0,1,.108-.41c.044-.13.094-.267.152-.41.058-.231.108-.454.152-.67a3.043,3.043,0,0,0,.064-.584,1.066,1.066,0,0,0-.151-.582.544.544,0,0,0-.5-.238,1.764,1.764,0,0,0-.993.41,6.71,6.71,0,0,0-1.3,1.4,17.463,17.463,0,0,0-1.771,3.174q-.734,1.707-1.381,3.477-.259.821-.519,1.62t-.518,1.576c-.029.059-.057.122-.086.195s-.057.151-.086.238h-8.034q1.295-3.805,2.591-7.588t2.635-7.589h8.034c-.029.087-.057.173-.087.258s-.058.173-.086.26a2.265,2.265,0,0,0-.13.3c-.03.086-.057.173-.087.259a12.639,12.639,0,0,1,2.225-.972,11.679,11.679,0,0,1,2.526-.539,2.187,2.187,0,0,1,.432-.043h.433a7.033,7.033,0,0,1,2.4.411,4.958,4.958,0,0,1,2.009,1.364,3.825,3.825,0,0,1,.821,1.342,4.541,4.541,0,0,1,.259,1.515c0,.116-.007.246-.021.39a2.9,2.9,0,0,1-.066.389c-.028.144-.057.281-.087.411a2.728,2.728,0,0,1-.129.412q-.13.432-.3.886c-.116.3-.216.614-.3.931q-.173.432-.346.886t-.3.931a1.547,1.547,0,0,0-.088.217c-.028.086-.057.186-.085.3-.029.059-.059.122-.088.195a.643.643,0,0,0-.043.238.78.78,0,0,0-.065.217,1.3,1.3,0,0,0-.022.216.551.551,0,0,0,.129.369.544.544,0,0,0,.432.151,1.433,1.433,0,0,0,.5-.087,4.9,4.9,0,0,0,.5-.216,7.164,7.164,0,0,0,1.057-.886,11.287,11.287,0,0,0,.972-1.1,7.863,7.863,0,0,0,.6-.864,4.859,4.859,0,0,0,.389-.777l.086-.172a1.51,1.51,0,0,0,.086-.217.386.386,0,0,1,.044-.173c.029-.058.058-.115.087-.172l2.158,1.036A20.216,20.216,0,0,1,395,77.624" transform="translate(-269.118 -46.501)" fill="#111"/>
    <path id="Path_3810" data-name="Path 3810" d="M493.078,73.116h0q-.346.713-.777,1.447a12.57,12.57,0,0,1-2.008,2.614,3.9,3.9,0,0,1-4.017.992,5.9,5.9,0,0,1-1.1-.5,12.6,12.6,0,0,1-3.951,2.16,17.154,17.154,0,0,1-4.643.907H475.8a13.992,13.992,0,0,1-4.319-.669,10.385,10.385,0,0,1-3.628-2.009,7.107,7.107,0,0,1-1.815-2.4,6.321,6.321,0,0,1-.561-2.57,7.013,7.013,0,0,1,1.209-3.887,10.759,10.759,0,0,1,3.2-3.153,14.968,14.968,0,0,1,3.887-1.771,15.363,15.363,0,0,1,4.449-.648c.23,0,.453.007.669.021s.44.022.67.022a14.978,14.978,0,0,1,3.628.8,8.8,8.8,0,0,1,3.11,1.878,7.127,7.127,0,0,1,1.77,2.355,6.509,6.509,0,0,1,.6,2.742,6.194,6.194,0,0,1-.086,1.037,6.859,6.859,0,0,1-.258,1.037,3.289,3.289,0,0,0,1.058-.324,2.987,2.987,0,0,0,.885-.757,3.769,3.769,0,0,0,.519-.67q.259-.409.561-.928l2.333,1.036q-.259.519-.6,1.232m-12.2-6.739a1.392,1.392,0,0,0-1.144-.584,2.307,2.307,0,0,0-.951.238,4.677,4.677,0,0,0-1.037.67,3.5,3.5,0,0,0-.411.389c-.129.144-.265.288-.41.432a9.67,9.67,0,0,0-1.6,2.656,14.245,14.245,0,0,0-.863,3.044c-.03.346-.059.684-.087,1.015s-.043.655-.043.972c0,.172.007.389.021.648a4.7,4.7,0,0,0,.109.777,4.177,4.177,0,0,0,.453,1.317,1.08,1.08,0,0,0,1.015.582,2.8,2.8,0,0,0,1.922-.754,6.422,6.422,0,0,0,1.361-1.707c.086-.143.172-.281.259-.41a2.173,2.173,0,0,0,.217-.41,3.209,3.209,0,0,1-1.058-1.187,3.282,3.282,0,0,1-.368-1.533v-.3a4.9,4.9,0,0,1,.973-2.441,3.819,3.819,0,0,1,2.138-1.49,3.36,3.36,0,0,0-.5-1.922" transform="translate(-338.787 -46.315)" fill="#111"/>
    <path id="Path_3811" data-name="Path 3811" d="M588.245,40.361a24.9,24.9,0,0,1-4.535,5.486,19.363,19.363,0,0,1-3.736,2.526,16.672,16.672,0,0,1-4.6,1.663q-.6.086-1.21.151a11.621,11.621,0,0,1-1.21.064,8.626,8.626,0,0,1-3.368-.668,6.208,6.208,0,0,1-2.721-2.311,6.107,6.107,0,0,1-.972-1.944,7.234,7.234,0,0,1-.281-1.987,7.859,7.859,0,0,1,.13-1.4,13.766,13.766,0,0,1,.346-1.447,19.146,19.146,0,0,1,.993-2.527q.606-1.273,1.254-2.483.647-1.253,1.273-2.441a16.677,16.677,0,0,0,1.016-2.312,4.066,4.066,0,0,0,.237-.82,4.161,4.161,0,0,0,.065-.691,1.775,1.775,0,0,0-.648-1.469,3.164,3.164,0,0,0-1.988-.518,5.779,5.779,0,0,0-3.952,1.512,5.407,5.407,0,0,0-1.879,3.758,1.383,1.383,0,0,0-.043.323v.324q0,1.513.907,1.88a8.064,8.064,0,0,0,2.2.5,1.028,1.028,0,0,1,.194.021,1.183,1.183,0,0,0,.237.022c-.116.116-.23.237-.345.367a2.676,2.676,0,0,0-.3.41,1.032,1.032,0,0,0-.151.194,1.033,1.033,0,0,1-.151.194,6.427,6.427,0,0,1-1.189,1.08,5.384,5.384,0,0,1-1.231.648,5.264,5.264,0,0,1-.778.195,4.449,4.449,0,0,1-.733.063,4.108,4.108,0,0,1-3.024-1.317,4.518,4.518,0,0,1-1.3-3.3,5.5,5.5,0,0,1,.129-1.166,7.765,7.765,0,0,1,.388-1.253,10.064,10.064,0,0,1,4.686-4.86,20.338,20.338,0,0,1,7.106-2.267l1.187-.086q.583-.044,1.188-.044a18.47,18.47,0,0,1,2.7.2,11.525,11.525,0,0,1,2.441.626A8.191,8.191,0,0,1,580.19,27.6a5.3,5.3,0,0,1,1.317,3.693,6.322,6.322,0,0,1-.107,1.145,7.794,7.794,0,0,1-.324,1.187A17.1,17.1,0,0,1,580,36.216q-.648,1.252-1.339,2.5-.993,1.945-1.706,3.456a10.324,10.324,0,0,0-.885,2.505v.174c-.029.028-.043.05-.043.065v.064a1.13,1.13,0,0,0,.367.8,1.68,1.68,0,0,0,1.1.281,6.552,6.552,0,0,0,5.183-2.915,22.708,22.708,0,0,0,3.542-6.414,19.945,19.945,0,0,0,.972-3.347,15.659,15.659,0,0,0,.324-2.959,6.923,6.923,0,0,0-.518-2.916,4.252,4.252,0,0,0-2.117-1.879,3.216,3.216,0,0,0,.216-.324,1.365,1.365,0,0,1,.217-.281,5.622,5.622,0,0,1,1.123-1.145,2.336,2.336,0,0,1,1.555-.41h.388a1.136,1.136,0,0,1,.324.043c.1.029.209.057.325.085a4.026,4.026,0,0,1,1.165.453,3.149,3.149,0,0,1,.951.842,7.284,7.284,0,0,1,.885,1.965A8.017,8.017,0,0,1,592.306,29c0,.259-.015.532-.043.821a7.279,7.279,0,0,1-.13.82,16.134,16.134,0,0,1-.346,1.685q-.217.822-.475,1.6a32.066,32.066,0,0,1-3.067,6.435" transform="translate(-405.223 -17.082)" fill="#111"/>
    <path id="Path_3812" data-name="Path 3812" d="M693.107,52.972h0c-.072.13-.151.266-.238.41a30.462,30.462,0,0,1-1.512,2.677,10.952,10.952,0,0,1-1.986,2.333,7.728,7.728,0,0,1-2.528,1.469,10.611,10.611,0,0,1-3,.6h-.389a9.635,9.635,0,0,1-1.3-.086,6.128,6.128,0,0,1-1.253-.3,4.081,4.081,0,0,1-2.332-1.749,5.1,5.1,0,0,1-.691-2.612,7.473,7.473,0,0,1,.064-.972,9.235,9.235,0,0,1,.194-1.016q.086-.258.152-.5t.151-.5q.69-1.986,1.359-3.951t1.362-3.951h8.466q-.26.777-.54,1.576t-.541,1.575q-.561,1.555-1.1,3.131t-1.058,3.173a4.486,4.486,0,0,0-.216.627,2.231,2.231,0,0,0-.086.582.556.556,0,0,0,.193.432.883.883,0,0,0,.67.129,1.917,1.917,0,0,0,.864-.28,5.43,5.43,0,0,0,1.08-.8,7.906,7.906,0,0,0,1.273-1.64q.5-.864.929-1.813.172.086.367.172c.13.059.253.116.369.173q.344.174.711.324a7.64,7.64,0,0,1,.757.367,3.754,3.754,0,0,1-.195.411m-2.829-10.666a4.891,4.891,0,0,1-1.468.8c-.116.028-.217.05-.3.065a1.684,1.684,0,0,0-.259.064c-.23.029-.468.057-.713.087a6.091,6.091,0,0,1-.713.043,7.81,7.81,0,0,1-1.9-.238,4.539,4.539,0,0,1-1.684-.8,3.272,3.272,0,0,1-.885-1.014,2.4,2.4,0,0,1-.324-1.187,1.96,1.96,0,0,1,.129-.692,2.755,2.755,0,0,1,.346-.648,3.678,3.678,0,0,1,1.576-1.165,6.919,6.919,0,0,1,2.009-.476h.475a7.041,7.041,0,0,1,.949.065,6.127,6.127,0,0,1,.908.195l.258.086a1.838,1.838,0,0,1,.217.086,5.884,5.884,0,0,1,1.662,1.08,2.2,2.2,0,0,1,.757,1.685,2.081,2.081,0,0,1-.021.281c-.015.1-.037.209-.065.324a2.749,2.749,0,0,1-.951,1.361" transform="translate(-493.38 -27.034)" fill="#111"/>
    <path id="Path_3813" data-name="Path 3813" d="M737.843,56.663a3.6,3.6,0,0,0-.195.411,30.642,30.642,0,0,1-1.511,2.68,10.969,10.969,0,0,1-1.987,2.333,8.232,8.232,0,0,1-2.57,1.512,9.712,9.712,0,0,1-3.433.561h-.26a6.978,6.978,0,0,1-2.311-.476,3.779,3.779,0,0,1-1.793-1.469,4.576,4.576,0,0,1-.626-1.382,5.86,5.86,0,0,1-.194-1.513,3.857,3.857,0,0,1,.021-.41c.015-.13.036-.266.065-.41a11.924,11.924,0,0,1,.238-1.211q.15-.605.324-1.167.258-.691.5-1.383t.454-1.426q.215-.692.453-1.384t.5-1.383h-1.857l.734-2.072h1.858q.215-.649.431-1.275t.475-1.274q.214-.605.432-1.231t.431-1.274q1.425-.215,2.851-.41t2.85-.411c.462-.058.937-.121,1.426-.194s.965-.137,1.425-.2q-.258.778-.539,1.556t-.541,1.554q-.259.778-.54,1.577t-.538,1.577h2.332l-.778,2.072h-2.289q-.3.909-.626,1.837t-.626,1.88q-.345.951-.648,1.881t-.647,1.837c-.058.2-.108.4-.152.583a2.217,2.217,0,0,0-.064.5.582.582,0,0,0,.649.692,1.6,1.6,0,0,0,.582-.13,4.327,4.327,0,0,0,.67-.346c.115-.086.237-.172.366-.259a2.375,2.375,0,0,0,.367-.3,6.584,6.584,0,0,0,1.34-1.642q.517-.907.949-1.859l2.2,1.037a3.417,3.417,0,0,1-.194.411" transform="translate(-526.191 -30.723)" fill="#111"/>
  </g>
</svg>
