<svg id="collegium_novum2023" xmlns="http://www.w3.org/2000/svg" width="307.65" height="69.75" viewBox="0 0 307.65 69.75">
  <g id="Group_3019" data-name="Group 3019" transform="translate(141.214 1.875)">
    <path id="Path_2904" data-name="Path 2904" d="M868.625,67.118l3.276,3.665a9.617,9.617,0,0,1-2.983,2.145,9.973,9.973,0,0,1-4.387.9,10.215,10.215,0,0,1-5.147-1.267,9.077,9.077,0,0,1-3.471-3.47,10.061,10.061,0,0,1-1.248-5.05,9.6,9.6,0,0,1,4.8-8.442,9.819,9.819,0,0,1,5.069-1.306,10.681,10.681,0,0,1,4.348.819,8.75,8.75,0,0,1,3.061,2.184l-3.393,3.665a6.634,6.634,0,0,0-1.521-1.248,4.543,4.543,0,0,0-2.379-.546,3.912,3.912,0,0,0-2.3.682,4.5,4.5,0,0,0-1.5,1.794,5.529,5.529,0,0,0-.526,2.4,5.357,5.357,0,0,0,.526,2.32,4.8,4.8,0,0,0,1.5,1.833,3.757,3.757,0,0,0,2.3.722,4.628,4.628,0,0,0,2.417-.585,7.219,7.219,0,0,0,1.558-1.215Z" transform="translate(-854.663 -47.192)"/>
    <path id="Path_2905" data-name="Path 2905" d="M966.763,64.037a9.859,9.859,0,0,1,1.248-4.913,9.366,9.366,0,0,1,3.451-3.529,10.717,10.717,0,0,1,10.255,0,9.228,9.228,0,0,1,3.431,3.529,10.44,10.44,0,0,1,0,9.826,9.366,9.366,0,0,1-3.431,3.548,10.579,10.579,0,0,1-10.255,0,9.508,9.508,0,0,1-3.451-3.548,9.859,9.859,0,0,1-1.248-4.913Zm9.826,4.913a3.944,3.944,0,0,0,2.4-.7,4.522,4.522,0,0,0,1.462-1.833,5.754,5.754,0,0,0,.507-2.378,5.624,5.624,0,0,0-.507-2.359,4.552,4.552,0,0,0-1.462-1.813,3.944,3.944,0,0,0-2.4-.7,4.051,4.051,0,0,0-2.4.7,4.429,4.429,0,0,0-1.5,1.813,5.616,5.616,0,0,0-.507,2.359,5.746,5.746,0,0,0,.507,2.378,4.4,4.4,0,0,0,1.5,1.833,4.051,4.051,0,0,0,2.4.7Z" transform="translate(-948.239 -47.192)"/>
    <path id="Path_2906" data-name="Path 2906" d="M1106.23,37.347V11.338h5.615V37.347Z" transform="translate(-1064.664 -11.338)"/>
    <path id="Path_2907" data-name="Path 2907" d="M1168.3,37.347V11.338h5.615V37.347Z" transform="translate(-1116.475 -11.338)"/>
    <path id="Path_2908" data-name="Path 2908" d="M1238.84,67.664l2.3,3.548q-.39.273-1.384.9a12.371,12.371,0,0,1-2.632,1.17,12.821,12.821,0,0,1-4.016.546,10.974,10.974,0,0,1-5.381-1.248,8.574,8.574,0,0,1-3.471-3.47,11.155,11.155,0,0,1-.1-9.9,8.822,8.822,0,0,1,3.236-3.568,9.316,9.316,0,0,1,5.089-1.345,8.737,8.737,0,0,1,4.972,1.345,8.4,8.4,0,0,1,3.041,3.7,13.454,13.454,0,0,1,1.033,5.44v.936H1228.5a3.494,3.494,0,0,0,1.326,2.573,5.067,5.067,0,0,0,3.47,1.131,8.37,8.37,0,0,0,3.548-.643,12.17,12.17,0,0,0,1.993-1.115Zm-10.333-5.537h7.721a3.445,3.445,0,0,0-.41-1.579,3.521,3.521,0,0,0-1.248-1.345,3.823,3.823,0,0,0-2.125-.546,4.023,4.023,0,0,0-2.164.546,3.749,3.749,0,0,0-1.326,1.345,3.206,3.206,0,0,0-.445,1.579Z" transform="translate(-1162.179 -47.192)"/>
    <path id="Path_2909" data-name="Path 2909" d="M1351.57,80.7l2.262-3.977a10.046,10.046,0,0,0,2.32,1.033,9.361,9.361,0,0,0,2.71.37,4.242,4.242,0,0,0,3-1.014,3.956,3.956,0,0,0,1.092-3.041V72.784a6.9,6.9,0,0,1-4.679,1.521,8.519,8.519,0,0,1-4.465-1.111,7.251,7.251,0,0,1-2.827-3.1,10.143,10.143,0,0,1-.975-4.523,9.93,9.93,0,0,1,1.326-5.186,9.072,9.072,0,0,1,3.685-3.451,11.787,11.787,0,0,1,5.518-1.228,23.952,23.952,0,0,1,7.993,1.365V73.8q0,4.523-2.5,6.688a10.067,10.067,0,0,1-6.824,2.164,13.431,13.431,0,0,1-7.636-1.952ZM1363,66.233v-5.5a6.856,6.856,0,0,0-1.092-.293,8.6,8.6,0,0,0-1.443-.1,4.347,4.347,0,0,0-3.607,1.482,5.492,5.492,0,0,0-1.189,3.548,4.793,4.793,0,0,0,.975,3.139,3.375,3.375,0,0,0,2.769,1.189,3.838,3.838,0,0,0,2.652-.838,3.364,3.364,0,0,0,.935-2.627Z" transform="translate(-1268.164 -48.374)"/>
    <path id="Path_2910" data-name="Path 2910" d="M1487.83,16.368v-5.03h6.005v5.03Zm.2,20.978V19.059h5.615V37.347Z" transform="translate(-1383.21 -11.338)"/>
    <path id="Path_2911" data-name="Path 2911" d="M1549.19,69.412V58.065h5.615V68.593a3.678,3.678,0,0,0,.76,2.456,2.773,2.773,0,0,0,2.242.9,3.138,3.138,0,0,0,2.652-1.228,4.479,4.479,0,0,0,.936-2.788V58.065h5.576V76.353h-5.381l-.156-1.95a6.839,6.839,0,0,1-2.359,1.735,7.162,7.162,0,0,1-3.061.682,6.679,6.679,0,0,1-4.972-1.872A7.558,7.558,0,0,1,1549.19,69.412Z" transform="translate(-1434.43 -50.344)"/>
    <path id="Path_2912" data-name="Path 2912" d="M1682.76,74.186V55.9h5.381l.2,2.028a6.987,6.987,0,0,1,2.184-1.755,6.572,6.572,0,0,1,3.12-.7,6.407,6.407,0,0,1,3.47.819A6.6,6.6,0,0,1,1699.02,58a7.716,7.716,0,0,1,2.749-1.872,8.818,8.818,0,0,1,3.373-.663,6.945,6.945,0,0,1,5.342,2.008,7.605,7.605,0,0,1,1.872,5.4V74.186h-5.615V63.775a3.967,3.967,0,0,0-.722-2.515,2.588,2.588,0,0,0-2.164-.916,3.29,3.29,0,0,0-2.593,1.131,4.21,4.21,0,0,0-.994,2.886v9.826h-5.42V63.775a3.967,3.967,0,0,0-.721-2.515,2.588,2.588,0,0,0-2.164-.916,3.3,3.3,0,0,0-2.573,1.131,4.158,4.158,0,0,0-1.014,2.886v9.826Z" transform="translate(-1545.93 -48.177)"/>
    <path id="Path_2913" data-name="Path 2913" d="M859.857,260.815V242.527h5.381l.156,1.989a6.39,6.39,0,0,1,2.379-1.755,7.381,7.381,0,0,1,3.042-.663,6.745,6.745,0,0,1,4.991,1.872,7.51,7.51,0,0,1,1.872,5.537v11.308h-5.615V250.286a3.618,3.618,0,0,0-.761-2.418,2.635,2.635,0,0,0-2.125-.9,3.341,3.341,0,0,0-2.788,1.209,4.4,4.4,0,0,0-.955,2.807v9.826Z" transform="translate(-858.997 -203.97)"/>
    <path id="Path_2914" data-name="Path 2914" d="M988.473,250.666a9.859,9.859,0,0,1,1.248-4.913,9.37,9.37,0,0,1,3.451-3.529,10.718,10.718,0,0,1,10.255,0,9.232,9.232,0,0,1,3.431,3.529,10.44,10.44,0,0,1,0,9.826,9.368,9.368,0,0,1-3.431,3.548,10.579,10.579,0,0,1-10.255,0,9.508,9.508,0,0,1-3.451-3.548,9.858,9.858,0,0,1-1.248-4.913Zm9.826,4.913a3.944,3.944,0,0,0,2.4-.7,4.523,4.523,0,0,0,1.462-1.833,5.754,5.754,0,0,0,.507-2.379,5.622,5.622,0,0,0-.507-2.359,4.553,4.553,0,0,0-1.462-1.813,3.944,3.944,0,0,0-2.4-.7,4.05,4.05,0,0,0-2.4.7,4.428,4.428,0,0,0-1.5,1.813,5.617,5.617,0,0,0-.507,2.359,5.747,5.747,0,0,0,.507,2.379,4.4,4.4,0,0,0,1.5,1.833,4.05,4.05,0,0,0,2.4.7Z" transform="translate(-966.362 -202.985)"/>
    <path id="Path_2915" data-name="Path 2915" d="M1118.91,262.981l-7.721-18.288h6.239l4.328,12.01,4.172-12.01h6.122l-7.838,18.288Z" transform="translate(-1068.802 -206.136)"/>
    <path id="Path_2916" data-name="Path 2916" d="M1251.84,256.04V244.693h5.615v10.528a3.677,3.677,0,0,0,.761,2.456,2.773,2.773,0,0,0,2.242.9,3.138,3.138,0,0,0,2.652-1.228,4.48,4.48,0,0,0,.936-2.788V244.7h5.576v18.288h-5.381l-.156-1.95a6.834,6.834,0,0,1-2.359,1.735,7.161,7.161,0,0,1-3.061.682,6.678,6.678,0,0,1-4.972-1.872A7.557,7.557,0,0,1,1251.84,256.04Z" transform="translate(-1186.214 -206.136)"/>
    <path id="Path_2917" data-name="Path 2917" d="M1385.88,260.815V242.527h5.381l.195,2.028a6.984,6.984,0,0,1,2.184-1.755,6.573,6.573,0,0,1,3.12-.7,6.409,6.409,0,0,1,3.47.819,6.6,6.6,0,0,1,1.911,1.716,7.718,7.718,0,0,1,2.749-1.872,8.821,8.821,0,0,1,3.373-.663,6.945,6.945,0,0,1,5.342,2.008,7.606,7.606,0,0,1,1.872,5.4v11.308h-5.615V250.4a3.966,3.966,0,0,0-.722-2.515,2.588,2.588,0,0,0-2.164-.916,3.29,3.29,0,0,0-2.593,1.131,4.211,4.211,0,0,0-.994,2.886v9.826h-5.42V250.4a3.966,3.966,0,0,0-.721-2.515,2.587,2.587,0,0,0-2.164-.916,3.306,3.306,0,0,0-2.573,1.131,4.159,4.159,0,0,0-1.014,2.886v9.826Z" transform="translate(-1298.108 -203.97)"/>
  </g>
  <path id="Path_2918" data-name="Path 2918" d="M48.558,41.97a34.881,34.881,0,0,0,68.3,0h21.734v-14.2H116.857a34.881,34.881,0,0,0-68.3,0H0v14.2Zm34.15-23.986A16.888,16.888,0,1,1,65.82,34.872,16.888,16.888,0,0,1,82.708,17.984Z" transform="translate(0 0.002)"/>
  <circle id="Ellipse_10" data-name="Ellipse 10" cx="11.432" cy="11.432" r="11.432" transform="translate(67.771 28.687) rotate(-22.5)"/>
</svg>
