<svg xmlns="http://www.w3.org/2000/svg" xmlns:xlink="http://www.w3.org/1999/xlink" width="2018.531" height="1859.878" viewBox="0 0 2018.531 1859.878">
  <defs>
    <clipPath id="clip-path">
      <rect id="Rectangle_127" data-name="Rectangle 127" width="2018.531" height="1859.878" fill="none" stroke="#fff" stroke-width="1"/>
    </clipPath>
  </defs>
  <g id="Group_59" data-name="Group 59" style="mix-blend-mode: overlay;isolation: isolate">
    <g id="Group_58" data-name="Group 58" clip-path="url(#clip-path)">
      <path id="Path_780" data-name="Path 780" d="M350.412,13.9c.289-.016.779-.1.173-.092-.069,0-.159.061-.2.061v.008A.042.042,0,0,0,350.412,13.9Z" transform="translate(660.983 22.619)" fill="none" stroke="#fff" stroke-width="0.25"/>
      <path id="Path_781" data-name="Path 781" d="M350.343,690.7a.043.043,0,0,1-.035-.037.561.561,0,0,1,.537.005l0,.005A.666.666,0,0,1,350.343,690.7Z" transform="translate(660.841 1131.045)" fill="none" stroke="#fff" stroke-width="0.25"/>
      <path id="Path_782" data-name="Path 782" d="M350.417,13.87a.047.047,0,0,1-.035-.029v-.008c.127,0,.854.016.323.069A2.461,2.461,0,0,1,350.417,13.87Z" transform="translate(660.983 22.655)" fill="none" stroke="#fff" stroke-width="0.25"/>
      <path id="Path_783" data-name="Path 783" d="M350.337,690.695a.669.669,0,0,0,.505-.024l0-.005a.555.555,0,0,0-.537-.005A.041.041,0,0,0,350.337,690.695Z" transform="translate(660.841 1131.044)" fill="none" stroke="#fff" stroke-width="0.25"/>
      <path id="Path_784" data-name="Path 784" d="M350.336,690.695h0l.006,0,.006,0,.006,0,.006,0,.009,0h.009l.006,0,.009,0,.009,0,.009,0h.009l.009,0h.012l.009,0,.012,0h.02l.012,0h.02l.012,0h.115l.012,0h.02l.012,0h.009l.012,0h.009l.012,0h.009l.009,0,.009,0,.009,0h.009l.009,0,.009,0,.006,0,.006,0,.009,0,.006,0,.006,0,0,0,.006,0,.006,0,0,0,0,0,0,0,0,0v0l0,0v0l0,0,0-.005v-.005l0,0v0l0,0,0,0,0,0-.006,0,0,0-.006,0-.006,0-.006,0-.006,0-.006,0-.006,0-.009,0-.009,0-.006,0h-.009l-.009,0-.009,0h-.009l-.012,0-.009,0H350.7l-.009,0h-.012l-.012,0h-.032l-.012,0h-.1l-.012,0h-.023l-.011,0h-.009l-.012,0h-.009l-.012,0h-.009l-.009,0-.009,0H350.4l-.009,0-.006,0-.009,0-.006,0h-.009l-.006,0-.006,0-.006,0-.006,0-.006,0-.006,0,0,0,0,0,0,0,0,0,0,0,0,0v.013l0,0v.005l0,0,0,0,0,0,0,0,.006,0,0,0Z" transform="translate(660.841 1131.045)" fill="none" stroke="#fff" stroke-width="0.25"/>
      <path id="Path_785" data-name="Path 785" d="M220.744,789.615c144.917,72,338.578,77.709,499.432,77.023,92.67-.4,185.72-6.378,277.1-20.775,73.662-11.606,155.851-26.544,219-65.3C1370.024,686.19,1070.583,617.074,1004.5,606.32c-179.783-29.264-369.14-30.171-549.668-5.808-55.146,7.441-382.79,62.814-272.71,163.848C193.276,774.593,206.958,782.68,220.744,789.615Z" transform="translate(301.223 955.201)" fill="none" stroke="#fff" stroke-width="0.25"/>
      <path id="Path_786" data-name="Path 786" d="M129.171,747.075C243.443,801.543,372.3,827.43,498.788,845.649c144.5,20.815,291.059,29.825,437.284,30.546,149.764.739,300.053-7.125,448.287-27.061,126.932-17.069,259.394-40.522,375.132-93.137,42.5-19.322,94.367-46.478,112.9-88.994,20.979-48.129-20-88.9-60.491-114.746-97.958-62.534-226.093-87.991-341.476-107.93-145.8-25.193-294.534-36.539-442.762-39.593-149.189-3.073-298.9,2.59-447.054,19.235-131.5,14.774-266.238,36.438-389.467,82.4C102.9,539.286-39.464,619.7,70.877,710.468,88.524,724.984,108.721,736.234,129.171,747.075Z" transform="translate(57.851 661.557)" fill="none" stroke="#fff" stroke-width="0.25"/>
      <path id="Path_787" data-name="Path 787" d="M109.366,578.606C243.7,642.177,396.433,670.159,545.028,689.657c155.817,20.445,313.576,28.8,470.928,28.5,158.008-.3,316.42-9.522,472.721-31.047,145.336-20.016,304.241-46.863,432.16-116.87,39.164-21.435,86.724-53.713,92.295-98.672,5.34-43.109-32.36-77.659-67.685-100.748-117.99-77.121-279.605-104.783-419.6-126.118-155.266-23.663-312.947-34.312-470.265-36.275-157.987-1.97-316.4,5.1-473.154,23.5-149.129,17.5-304.691,42.526-441.821,101.325C55.179,369.884-55.71,447.556,38.23,532.35,59.133,551.218,84.043,565.283,109.366,578.606Z" transform="translate(4.53 340.841)" fill="none" stroke="#fff" stroke-width="0.25"/>
      <path id="Path_788" data-name="Path 788" d="M168.743,339.508c97.984,46.269,209.3,67.263,317.594,82.1,120.885,16.563,243.452,23.521,365.642,23.54,120.443.019,241.14-6.412,360.391-22.184,106.271-14.057,217.258-33.365,314.185-77.292,34.958-15.845,79.3-38.765,92.958-74.744,14.268-37.591-17.6-68.967-48.706-89.207-86.785-56.475-204.61-77.308-307.474-93.583-236.626-37.435-484.056-39.643-722.2-12.97-75.01,8.4-583.572,84.356-428.376,227.941C128.875,318.02,148.674,329.563,168.743,339.508Z" transform="translate(157.464 93.801)" fill="none" stroke="#fff" stroke-width="0.25"/>
      <path id="Path_789" data-name="Path 789" d="M282.436,105.033c71.523,34.339,164.147,38.187,243.123,39.039,80.7.87,169.086-2.909,245.239-29.847,33.232-11.754,76.757-37.918,35.267-67.179C776.681,26.324,733.136,18.8,697.454,12.776,608.837-2.19,515.887-3.217,426.5,6.221,394.806,9.566,212.517,32.81,258.611,88.734,264.407,95.766,274.1,100.984,282.436,105.033Z" transform="translate(473.85 0.204)" fill="none" stroke="#fff" stroke-width="0.25"/>
      <path id="Path_790" data-name="Path 790" d="M350.4,110.9l.006,0,.012.005a.872.872,0,0,0,.34.021.5.5,0,0,0,.087-.016.145.145,0,0,0,.046-.021l0,0,0,0,.009-.011,0,0v-.011h0v-.005l0,0-.009-.008,0,0-.009-.005a.779.779,0,0,0-.419-.021.656.656,0,0,0-.078.029l0,0-.009.008,0,0v.018h0l0,.005.006.005,0,0,0,0h0l0,0Z" transform="translate(660.964 181.458)" fill="none" stroke="#fff" stroke-width="0.25"/>
      <path id="Path_791" data-name="Path 791" d="M350.38,304.43a.794.794,0,0,0,.416.021.6.6,0,0,0,.075-.029h0v0l.009-.005,0-.011,0,0V304.4l0,0v0l-.009-.011a.717.717,0,0,0-.421-.034.84.84,0,0,0-.087.029l-.009.005-.009.011v.016l0,0,0,.005,0,0,.009.005v0h0v0Z" transform="translate(660.922 498.424)" fill="none" stroke="#fff" stroke-width="0.25"/>
      <path id="Path_792" data-name="Path 792" d="M350.358,497.7a.754.754,0,0,0,.419.019.38.38,0,0,0,.075-.029l.011-.013v-.018l0,0,0,0,0,0,0,0a.723.723,0,0,0-.41-.034l-.089.026-.006.005-.009.008-.006.008h0v.016l0,0v0h0v0l0,0,0,0Z" transform="translate(660.881 814.952)" fill="none" stroke="#fff" stroke-width="0.25"/>
      <path id="Path_793" data-name="Path 793" d="M1011.375,13.977q-.039,331.067-.081,662.134-.043,348.911-.087,697.82-.026,212.632-.052,425.261c-210.2-7.916-413.032-67.066-584.941-179.05C262.34,1513.391,132.669,1363.074,61.65,1190.7c-72.288-175.46-81.8-371.582-23.643-551.6,55.882-172.991,173.277-326.666,329.353-436.7C528.728,88.632,727.856,23.866,931.112,14.8,957.863,13.6,984.6,13.6,1011.375,13.977Z" transform="translate(0.235 22.53)" fill="none" stroke="#fff" stroke-width="0.25"/>
      <path id="Path_794" data-name="Path 794" d="M870.6,510.052l-.066,553.1-.055,440.629q-.017,151.873-.037,303.746c-182.6-39.482-340.81-136.751-465.764-263.021C279.744,1418.257,187.918,1264.685,133.124,1102.3,77.138,936.387,58.529,757.645,89.844,585.88c29.612-162.424,106.389-321.833,241.045-434.3C459.357,44.28,630.882-5.814,803.674,12.252c22.543,2.358,44.749,6.025,66.992,10.066Z" transform="translate(140.919 14.142)" fill="none" stroke="#fff" stroke-width="0.25"/>
      <path id="Path_795" data-name="Path 795" d="M565.685,33.6q-.039,302.82-.075,605.643-.056,460.9-.112,921.8-.017,128.889-.032,257.772c-104.305-79.532-157.41-213.719-198.378-328.045C314.506,1344.02,281.519,1191.269,260.8,1038.18c-19.9-147.009-28.374-295.616-22.693-443.7,5.415-141.211,20.78-287.7,73.14-421.587C342.738,92.357,415.832-38.073,531.513,13.44A191.733,191.733,0,0,1,565.685,33.6Z" transform="translate(445.905 2.84)" fill="none" stroke="#fff" stroke-width="0.25"/>
      <path id="Path_796" data-name="Path 796" d="M350.612,34.343q-.048,384.474-.1,768.951l-.078,631.546q-.022,192.358-.046,384.716c90.161-96.891,123.9-243.486,153.291-364,36.2-148.4,58.731-299.734,72.467-451.19,13.673-150.773,18.909-302.435,12.654-453.654-5.975-144.485-16.588-297.265-69.656-434.762C498.621,62.762,448.076-36.118,372.038,16.007A147.049,147.049,0,0,0,350.612,34.343Z" transform="translate(661.001 2.093)" fill="none" stroke="#fff" stroke-width="0.25"/>
      <path id="Path_797" data-name="Path 797" d="M350.56,349.478q-.035,285.723-.069,571.444l-.069,564.694-.04,323.846c178.083-46.227,325.667-153.284,439.962-284.14,118.149-135.268,201.8-296.563,249.35-463.746,47.537-167.13,61.3-344.933,27.753-515.434C1036.841,390.6,964.423,235.808,833.784,128.55,717.732,33.266,563.231-8.775,409.057,13.153c-19.706,2.8-39.089,6.8-58.457,11.1Z" transform="translate(660.979 12.218)" fill="none" stroke="#fff" stroke-width="0.25"/>
      <path id="Path_798" data-name="Path 798" d="M350.607,14.594q-.039,303.833-.075,607.666-.052,420.868-.1,841.736-.022,167.906-.04,335.811c202.208-11.533,396.406-73.615,561.17-181.714,158.674-104.106,285.292-248.113,360.577-412.911,77.282-169.166,97.732-360.335,52.478-539.285-47.355-187.243-165.506-355.573-332.165-472.852C831.052,79.468,630.825,17.606,427.534,13.544,401.856,13.032,376.259,13.742,350.607,14.594Z" transform="translate(660.992 21.9)" fill="none" stroke="#fff" stroke-width="0.25"/>
      <path id="Path_799" data-name="Path 799" d="M350.5,826.384q-.052,416.508-.1,833.018-.009,69.831-.017,139.663c196.265,18.029,393.289-16.885,559.975-116.094,173.612-103.333,296.855-265.322,351.08-447.231,51.737-173.556,41.591-360.008-18.471-530.64-59.825-169.958-169.6-324.092-313.241-444.831C788.117,141.236,611.371,56.117,421.826,23.559c-23.614-4.057-47.384-7.032-71.223-9.71Z" transform="translate(660.983 22.682)" fill="none" stroke="#fff" stroke-width="0.25"/>
      <path id="Path_800" data-name="Path 800" d="M350.589,176.512q-.035,293.68-.072,587.361-.048,402.2-.1,804.387-.013,115.412-.029,230.82c138.293,49.87,281.634,19.994,384.791-77.248,113.611-107.1,166.3-260.977,189.767-405.338,25.938-159.531,18.54-323.577-12.568-482.034-31.936-162.685-89.844-322.2-176.827-467.347-77.79-129.805-184.419-257.772-329.27-329.581a517.979,517.979,0,0,0-55.674-23.671Z" transform="translate(660.996 22.701)" fill="none" stroke="#fff" stroke-width="0.25"/>
      <path id="Path_801" data-name="Path 801" d="M350.611,13.86l-.087,696.09q-.048,401.025-.1,802.047-.013,132.149-.032,264.3c0,18.91-1.2,44,11.537,60.062l1.1.485,1.094-.082c.358-.216.722-.435,1.08-.649,16.7-23.914,13.91-65.417,16.314-92.921,4.027-46.053,6.151-92.264,8.024-138.428,5.409-133.3,6.933-266.743,7.262-400.136q.554-221.839-4.292-443.638c-2.84-138.038-7.156-276.084-14.112-413.995-5.115-101.386-9.574-203.45-23.253-304.224C353.841,33.113,352.392,23.448,350.611,13.86Z" transform="translate(660.945 22.7)" fill="none" stroke="#fff" stroke-width="0.25"/>
      <path id="Path_802" data-name="Path 802" d="M685.543,664.031l-.113,918.656q-.013,108.2-.026,216.39c-101.225,43.911-210.253,34.568-295.648-33.489-105.835-84.351-156.648-218.155-184.941-340-41.582-179.077-39.432-367.172-11.982-547.857,27.147-178.689,80.509-356.341,167.186-518.81,65.8-123.343,155.029-250.69,285.127-324.814a425.848,425.848,0,0,1,40.477-20.245Z" transform="translate(325.99 22.698)" fill="none" stroke="#fff" stroke-width="0.25"/>
    </g>
  </g>
</svg>
