<svg xmlns="http://www.w3.org/2000/svg" xmlns:xlink="http://www.w3.org/1999/xlink" width="256.404" height="236.282" viewBox="0 0 256.404 236.282">
  <defs>
    <clipPath id="clip-path">
      <rect id="Rectangle_79" data-name="Rectangle 79" width="256.404" height="236.282" fill="none" stroke="#fff" stroke-width="2"/>
    </clipPath>
  </defs>
  <g id="Group_39" data-name="Group 39" opacity="0.211">
    <line id="Line_14" data-name="Line 14" x2="111.208" y2="111.208" transform="translate(70.44 70.44)" fill="none" stroke="#fff" stroke-width="2"/>
    <g id="Group_38" data-name="Group 38">
      <g id="Group_37" data-name="Group 37" clip-path="url(#clip-path)">
        <line id="Line_15" data-name="Line 15" x2="196.508" y2="196.508" transform="translate(59.232 39.109)" fill="none" stroke="#fff" stroke-width="2"/>
        <path id="Path_737" data-name="Path 737" d="M102.082,93.474a6.087,6.087,0,1,1-8.609,0,6.087,6.087,0,0,1,8.609,0" transform="translate(80.502 80.502)" fill="#fff" stroke="#fff" stroke-width="2"/>
        <path id="Path_738" data-name="Path 738" d="M108.241,99.633a6.087,6.087,0,1,1-8.609,0,6.087,6.087,0,0,1,8.609,0" transform="translate(85.91 85.91)" fill="#fff" stroke="#fff" stroke-width="2"/>
        <line id="Line_16" data-name="Line 16" y1="48.916" x2="48.916" transform="translate(64.542 76.79)" fill="none" stroke="#fff" stroke-width="2"/>
        <line id="Line_17" data-name="Line 17" y1="18.123" x2="18.122" transform="translate(224.812 198.082)" fill="none" stroke="#fff" stroke-width="2"/>
        <circle id="Ellipse_14" data-name="Ellipse 14" cx="40.713" cy="40.713" r="40.713" transform="translate(0.939 0.939)" fill="none" stroke="#fff" stroke-width="2"/>
      </g>
    </g>
  </g>
</svg>
