<?xml version="1.0" encoding="UTF-8" standalone="no"?>
<svg
   width="451.42374"
   height="386.94736"
   viewBox="0 0 451.42371 386.94734"
   version="1.1"
   id="svg2"
   xmlns:xlink="http://www.w3.org/1999/xlink"
   xmlns="http://www.w3.org/2000/svg"
   xmlns:svg="http://www.w3.org/2000/svg">
  <defs
     id="defs2">
    <linearGradient
       id="linear-gradient"
       x1="0.5"
       x2="0.5"
       y2="1"
       gradientUnits="objectBoundingBox">
      <stop
         offset="0"
         stop-color="#fff"
         stop-opacity="0.608"
         id="stop1" />
      <stop
         offset="1"
         stop-opacity="0"
         id="stop2" />
    </linearGradient>
    <clipPath
       id="clip-path">
      <rect
         id="Rectangle_64"
         data-name="Rectangle 64"
         width="170.608"
         height="593.65503"
         fill="url(#linear-gradient)"
         x="0"
         y="0" />
    </clipPath>
    <linearGradient
       xlink:href="#linear-gradient"
       id="linearGradient2"
       gradientUnits="userSpaceOnUse"
       x1="159.12973"
       x2="159.12973"
       y2="318.24609"
       gradientTransform="scale(0.53607738,1.8654023)"
       y1="-0.00032341536" />
    <linearGradient
       xlink:href="#linear-gradient"
       id="linearGradient3"
       gradientUnits="userSpaceOnUse"
       x1="104.69"
       x2="104.69"
       y2="326.01814"
       gradientTransform="scale(0.86686202,1.1535861)"
       y1="322.02958" />
    <linearGradient
       xlink:href="#linear-gradient"
       id="linearGradient4"
       gradientUnits="userSpaceOnUse"
       x1="81.959519"
       x2="81.959519"
       y2="420.87694"
       gradientTransform="scale(1.1042465,0.9055949)"
       y1="416.95116" />
    <linearGradient
       xlink:href="#linear-gradient"
       id="linearGradient5"
       gradientUnits="userSpaceOnUse"
       x1="82.555882"
       x2="82.555882"
       y2="424.06321"
       gradientTransform="scale(1.0964902,0.91200083)"
       y1="420.11841" />
    <linearGradient
       xlink:href="#linear-gradient"
       id="linearGradient6"
       gradientUnits="userSpaceOnUse"
       x1="38.101458"
       x2="38.101458"
       y2="192.97123"
       gradientTransform="scale(0.99658806,1.0034236)"
       y1="185.44647" />
    <linearGradient
       xlink:href="#linear-gradient"
       id="linearGradient7"
       gradientUnits="userSpaceOnUse"
       x1="44.653801"
       x2="44.653801"
       y2="185.63262"
       gradientTransform="scale(0.99552495,1.0044952)"
       y1="178.14104" />
  </defs>
  <g
     id="Group_31"
     data-name="Group 31"
     transform="rotate(50,46.626533,121.07391)">
    <g
       id="Group_30"
       data-name="Group 30"
       transform="translate(125.142,-240.926)"
       clip-path="url(#clip-path)">
      <path
         id="Path_723"
         data-name="Path 723"
         d="m 93.48,106.735 q 0,-50.337 0,-100.675 a 13.866,13.866 0 0 1 0.166,-4 C 93.921,1.189 95.011,0.03 95.774,0 c 0.763,-0.03 1.955,1.065 2.24,1.91 A 12.983,12.983 0 0 1 98.2,5.9 c 0.01,16.7 0.1,33.409 -0.062,50.112 -0.032,3.215 0.919,4.6 4.02,5.624 7.959,2.634 12.58,9.391 12.691,17.622 A 18.22,18.22 0 0 1 102.155,97.35 c -3.19,1.072 -4.008,2.655 -4,5.74 q 0.129,53.469 0,106.938 c -0.012,3.124 1.049,4.282 3.951,4.542 a 24.135,24.135 0 0 1 5.68,1.177 c 2.493,0.863 3.2,0.027 3.16,-2.408 -0.088,-5.517 -0.023,-11.037 -0.022,-16.556 a 15.415,15.415 0 0 1 0.049,-3.121 9.953,9.953 0 0 1 1.192,-2.38 7.558,7.558 0 0 1 0.822,2.3 c 0.064,6.711 0.156,13.426 -0.033,20.133 -0.075,2.708 1.021,3.929 3.389,4.947 26.524,11.388 42.2,35.857 41.344,64.723 -0.116,3.87 0.333,6.315 4.185,8.6 8.3,4.918 10.98,16.427 6.767,25.333 a 20,20 0 0 1 -24.313,10.75 c -3.319,-1.11 -5.272,-0.767 -7.752,1.708 a 60.543,60.543 0 0 1 -20.534,13.269 c -2.347,0.937 -3.21,2.17 -3.064,4.629 q 0.486,8.239 0.616,16.5 c 0.035,2.2 -0.54,4.412 -0.542,6.618 q -0.049,63.984 -0.064,127.967 c 0,2.929 0.251,4.817 3.738,5.859 5.353,1.6 8.658,6.982 8.631,12.376 a 12.876,12.876 0 0 1 -8.72,12.31 c -3.078,0.974 -3.7,2.558 -3.676,5.472 0.12,18.2 0.1,36.392 0.03,54.588 a 18.284,18.284 0 0 1 -1.074,4.293 21.19,21.19 0 0 1 -0.955,-4.421 q -0.107,-27.518 -0.016,-55.036 c 0.013,-2.575 -0.612,-3.93 -3.324,-4.806 a 12.629,12.629 0 0 1 -8.839,-12.19 c -0.129,-5.517 2.916,-10.728 8.392,-12.494 3.42,-1.1 3.779,-2.938 3.776,-5.871 q -0.066,-63.535 -0.01,-127.073 c 0,-4.527 0.02,-4.209 -4.394,-3.832 -7.4,0.633 -14.832,0.949 -22.257,1.134 -3.619,0.09 -3.671,-0.182 -3.736,3.609 -0.064,3.728 -0.023,7.457 -0.023,11.187 q -0.008,49.442 -0.047,98.885 a 22.013,22.013 0 0 1 -0.793,4.138 c -0.4,-1.387 -1.152,-2.775 -1.153,-4.164 Q 78.448,427.909 78.5,373.1 c 0,-4.427 -2.435,-6.573 -6.985,-5.964 a 2.439,2.439 0 0 0 -1.6,1.58 19.575,19.575 0 0 0 -0.159,4.009 c -0.006,20.879 0.017,41.757 -0.06,62.637 -0.005,1.466 -0.737,2.93 -1.132,4.394 a 21.114,21.114 0 0 1 -1,-4.5 c -0.066,-21.328 -0.038,-42.656 -0.052,-63.983 0,-5.04 -0.055,-4.993 -4.908,-6.764 C 31.04,352.982 10.3,331.535 2.493,298.446 a 143.928,143.928 0 0 1 -2.3,-15.913 c -0.174,-1.456 -0.794,-3.466 1.828,-3.767 2.785,-0.32 2.643,1.6 2.782,3.429 1.1,14.476 4.732,28.2 12.347,40.691 10.756,17.646 26.244,29.431 45.487,36.52 0.7,0.257 1.427,0.43 2.14,0.653 1.578,0.5 2.685,0.2 2.691,-1.712 0.016,-4.174 0.185,-8.366 -0.147,-12.514 -0.082,-1.036 -1.686,-2.166 -2.828,-2.865 C 59.422,339.862 53.856,337.418 49.2,333.796 9,302.531 16.476,240.753 63.024,219.416 c 3.6,-1.65 4.576,-3.532 4.566,-7.306 Q 67.397,149.02 67.585,85.931 a 18.838,18.838 0 0 1 1.076,-4.377 19.847,19.847 0 0 1 1.056,4.471 q 0.086,62.193 0.051,124.389 c 0,6.544 0.321,6.7 6.382,4.671 a 2.938,2.938 0 0 0 2.359,-3.24 c -0.033,-1.043 0,-2.088 0,-3.132 0,-18.792 -0.027,-37.584 0.033,-56.377 a 16.545,16.545 0 0 1 0.979,-3.9 17.2,17.2 0 0 1 0.972,3.97 c 0.066,18.793 0.038,37.586 0.059,56.379 0.007,5.121 0.049,5.119 5.209,4.885 7.739,-0.352 7.734,-0.352 7.734,-8.051 q 0,-49.442 0,-98.885 z M 67.521,281.018 h 0.012 v -53.17 c 0,-7.934 -0.19,-8.041 -7.349,-4.2 a 64.477,64.477 0 0 0 -23.992,92.208 63.481,63.481 0 0 0 26.922,23.464 c 4.111,1.933 4.321,1.777 4.406,-2.9 0.009,-0.446 0,-0.893 0,-1.34 v -54.062 m 13.017,-0.267 h -0.01 q 0,7.155 0,14.309 0.01,22.805 0.014,45.611 c 0,2.172 -0.087,4.181 2.959,4.434 a 69.038,69.038 0 0 0 24.8,-2.181 3.137,3.137 0 0 0 2.607,-3.558 c -0.069,-1.486 0.014,-2.98 0.014,-4.471 V 227.129 c 0,-8.343 0,-8.343 -8.263,-9.8 -4.451,-0.781 -4.451,-0.753 -4.45,3.827 q 0.008,47.845 -0.013,95.693 a 14.1,14.1 0 0 1 -0.216,4 3.625,3.625 0 0 1 -2.02,2.227 c -1.68,0.455 -2.363,-0.781 -2.4,-2.344 -0.042,-1.638 -0.075,-3.277 -0.075,-4.917 q 0,-46.059 0,-92.117 c 0,-7.933 -0.022,-7.933 -8.146,-7.277 -4.736,0.382 -4.784,0.382 -4.789,5.3 q -0.031,29.513 -0.009,59.027 m 32.477,-0.183 q 0,28.15 0.01,56.3 c 0.008,4.219 0.43,4.5 4.234,2.772 a 67.862,67.862 0 0 0 17.726,-11.9 c 2.1,-1.918 2.154,-3.207 0.149,-5.4 -6.045,-6.607 -7.111,-14.375 -3.466,-22.4 3.515,-7.731 9.965,-11.7 18.5,-11.731 4.441,-0.018 4.857,0.684 4.987,-4.941 0.528,-22.8 -8.5,-41.057 -26.684,-54.677 -3.892,-2.915 -8.463,-4.931 -12.749,-7.309 -1.748,-0.97 -2.835,-0.624 -2.712,1.648 0.048,0.892 0,1.788 0,2.681 v 54.958 M 78.5,290.374 q 0,-13.872 0,-27.743 0,-20.8 0,-41.61 c 0,-3.61 -0.277,-3.808 -3.891,-2.951 -4.811,1.141 -4.837,1.141 -4.839,6.305 q -0.016,52.8 -0.01,105.6 c 0,9.4 -0.023,18.794 0.026,28.19 0.017,3.043 5.066,6.146 7.667,4.718 a 2.685,2.685 0 0 0 0.955,-1.821 25.732,25.732 0 0 0 0.091,-3.572 q 0,-33.558 0,-67.117 m 87.378,18.145 a 15.739,15.739 0 1 0 -15.57,15.7 15.754,15.754 0 0 0 15.57,-15.7 m -71.633,56.359 c 3.73,-0.525 8.418,-1.225 13.12,-1.833 2.738,-0.355 3.723,-1.811 3.575,-4.532 -0.178,-3.257 -0.092,-6.531 0,-9.8 0.065,-2.4 -0.48,-3.665 -3.3,-2.869 a 64.3,64.3 0 0 1 -23.833,1.866 c -2.282,-0.22 -3.367,0.273 -3.309,2.707 0.083,3.412 0.135,6.831 0.012,10.241 -0.091,2.495 1.026,3.458 3.39,3.55 3.111,0.12 6.215,0.391 10.343,0.666 M 98.2,79.112 h 0.042 c 0,4.619 -0.07,9.239 0.026,13.857 0.064,3.121 0.537,3.368 3.453,2.365 a 16.917,16.917 0 0 0 -0.8,-32.031 c -1.992,-0.593 -2.768,-0.164 -2.739,1.951 0.064,4.619 0.02,9.238 0.02,13.858 m 12.688,437.9 h 0.016 c 0,-2.675 -0.007,-5.352 0,-8.028 0,-1.68 -0.528,-2.483 -2.432,-1.942 -3.877,1.1 -7.072,5.4 -7.121,9.818 -0.049,4.272 3.267,9.029 6.917,9.992 1.63,0.43 2.623,0.072 2.62,-1.813 -0.008,-2.675 0,-5.351 0,-8.026 m 2.2,-0.386 h -0.043 c 0,2.682 0.029,5.364 -0.009,8.046 -0.029,1.973 0.728,2.722 2.739,2.135 3.789,-1.108 6.963,-5.628 6.926,-10.011 -0.035,-4.28 -3.445,-8.8 -7.237,-9.77 -1.5,-0.385 -2.35,-0.082 -2.37,1.556 -0.03,2.681 -0.006,5.363 -0.006,8.044"
         transform="matrix(-1,-0.017,0.017,-1,190.758,569.642)"
         fill="url(#linear-gradient)"
         style="fill:url(#linearGradient2)" />
      <path
         id="Path_724"
         data-name="Path 724"
         d="m 90.64,376.09 c -0.832,-1.442 -1.754,-2.332 -1.6,-2.96 0.174,-0.707 1.251,-1.392 2.068,-1.637 0.291,-0.086 1.42,1.187 1.371,1.774 -0.062,0.772 -0.91,1.481 -1.84,2.822"
         transform="translate(26.707,111.447)"
         fill="url(#linear-gradient)"
         style="fill:url(#linearGradient3)" />
      <path
         id="Path_725"
         data-name="Path 725"
         d="m 88.336,379.6 c 1.182,-0.992 1.9,-2.051 2.544,-2.01 0.668,0.042 1.576,1.071 1.781,1.83 0.122,0.454 -0.9,1.728 -1.408,1.724 -0.792,-0.007 -1.577,-0.78 -2.917,-1.544"
         transform="translate(26.501,113.278)"
         fill="url(#linear-gradient)"
         style="fill:url(#linearGradient4)" />
      <path
         id="Path_726"
         data-name="Path 726"
         d="m 88.364,385.181 c 1.167,-1 1.878,-2.063 2.535,-2.032 0.657,0.031 1.59,1.082 1.776,1.838 0.118,0.481 -0.9,1.758 -1.416,1.759 -0.783,0 -1.565,-0.792 -2.9,-1.565"
         transform="translate(26.509,114.945)"
         fill="url(#linear-gradient)"
         style="fill:url(#linearGradient5)" />
      <path
         id="Path_727"
         data-name="Path 727"
         d="m 41.721,189.786 a 3.872,3.872 0 0 1 -3.955,3.845 3.783,3.783 0 0 1 -0.124,-7.541 3.823,3.823 0 0 1 4.078,3.7"
         transform="translate(10.267,55.822)"
         fill="url(#linear-gradient)"
         style="fill:url(#linearGradient6)" />
      <path
         id="Path_728"
         data-name="Path 728"
         d="m 48.18,182.764 c -0.248,2.262 -1.412,3.725 -3.687,3.7 a 3.616,3.616 0 0 1 -3.765,-3.628 3.743,3.743 0 0 1 3.955,-3.888 c 2.259,0.226 3.375,1.62 3.5,3.818"
         transform="translate(12.215,53.679)"
         fill="url(#linear-gradient)"
         style="fill:url(#linearGradient7)" />
    </g>
  </g>
</svg>
