<svg xmlns="http://www.w3.org/2000/svg" xmlns:xlink="http://www.w3.org/1999/xlink" width="226.513" height="219.242" viewBox="0 0 226.513 219.242">
  <defs>
    <clipPath id="clip-path">
      <rect id="Rectangle_108" data-name="Rectangle 108" width="222.788" height="215.386" fill="none"/>
    </clipPath>
  </defs>
  <g id="Group_54" data-name="Group 54" transform="translate(0 3.888) rotate(-1)" opacity="0.332">
    <g id="Group_53" data-name="Group 53" clip-path="url(#clip-path)">
      <path id="Path_773" data-name="Path 773" d="M6.094,1.046a3.569,3.569,0,1,1-5.047,0,3.569,3.569,0,0,1,5.047,0" transform="translate(0 0)" fill="#fff"/>
      <path id="Path_774" data-name="Path 774" d="M10.81,5.762a3.569,3.569,0,1,1-5.047,0,3.569,3.569,0,0,1,5.047,0" transform="translate(3.137 3.138)" fill="#fff"/>
      <path id="Path_775" data-name="Path 775" d="M15.525,10.477a3.569,3.569,0,1,1-5.047,0,3.569,3.569,0,0,1,5.047,0" transform="translate(6.274 6.274)" fill="#fff"/>
      <line id="Line_30" data-name="Line 30" x2="98.285" y2="98.285" transform="translate(24.931 24.932)" fill="none" stroke="#fff" stroke-width="1"/>
      <line id="Line_31" data-name="Line 31" x2="118.736" y2="118.736" transform="translate(75.624 68.222)" fill="none" stroke="#fff" stroke-width="1"/>
      <path id="Path_776" data-name="Path 776" d="M119.038,106.814a5.5,5.5,0,1,1-7.778,0,5.5,5.5,0,0,1,7.778,0" transform="translate(72.945 69.987)" fill="#fff"/>
      <path id="Path_777" data-name="Path 777" d="M132.311,113.462a10.186,10.186,0,1,1-14.4,0A10.184,10.184,0,0,1,132.311,113.462Z" transform="translate(76.454 73.497)" fill="none" stroke="#fff" stroke-width="1"/>
      <line id="Line_32" data-name="Line 32" x2="13.862" y2="13.862" transform="translate(208.338 200.936)" fill="none" stroke="#fff" stroke-width="1"/>
      <path id="Path_778" data-name="Path 778" d="M74.209,111.829a42.066,42.066,0,1,1,42.066-42.066" transform="translate(21.384 18.426)" fill="none" stroke="#fff" stroke-width="3"/>
    </g>
  </g>
</svg>
