<svg xmlns="http://www.w3.org/2000/svg" xmlns:xlink="http://www.w3.org/1999/xlink" width="69.745" height="69.745" viewBox="0 0 69.745 69.745">
  <defs>
    <clipPath id="clip-path">
      <rect id="Rechteck_1" data-name="Rechteck 1" width="69.745" height="69.745" transform="translate(0 0)" fill="none"/>
    </clipPath>
  </defs>
  <g id="Logo_" data-name="Logo " transform="translate(-184 -307.89)">
    <g id="Gruppe_2" data-name="Gruppe 2" transform="translate(184 307.89)" clip-path="url(#clip-path)">
      <path id="Pfad_1" data-name="Pfad 1" d="M292.908,402.461l5.841-5.161v40.2h-5.364v-3.648c-8.587,7.68-21.954,2.217-21.935-6.493V420.5c2.746-3.952,4.518-9.765,4.73-15.593h1.166v20.926c.289,8.888,15.492,7.772,15.51-2.993l.052-20.382Z" transform="translate(-244.554 -369.801)" fill="#fff"/>
    </g>
    <path id="Pfad_2" data-name="Pfad 2" d="M247.153,317.809l-.006-3.319-3.325.006a25.219,25.219,0,0,0-25.094,25.352l.009,3.325,3.319-.009a25.215,25.215,0,0,0,25.1-25.358h0Zm-2.817-.514a23.349,23.349,0,0,1-23.224,23.488,23.343,23.343,0,0,1,23.224-23.488Zm-28.631,26.333a26.589,26.589,0,0,0-26.447-26.748,26.584,26.584,0,0,0,26.447,26.748ZM188.96,371.6a26.587,26.587,0,0,0,26.745-26.45A26.578,26.578,0,0,0,188.96,371.6h0Z" transform="translate(-3.435 -4.57)" fill="#fff"/>
  </g>
</svg>
